<svg xmlns="http://www.w3.org/2000/svg" width="760" height="430" viewBox="0 0 760 430">
    <rect width="100%" height="100%" fill="#fff"/>
    
    <line x1="70" y1="368" x2="736" y2="368" stroke="#344054"/>
    <line x1="70" y1="52" x2="70" y2="368" stroke="#344054"/>
    <text x="380" y="414" text-anchor="middle" font-size="18">予測された契約数</text>
    <text transform="translate(20 215) rotate(-90)" text-anchor="middle" font-size="18">残差</text>
    <text x="380" y="28" text-anchor="middle" font-size="22" font-weight="700">予測値と残差</text>
      <line x1="70" y1="368" x2="70" y2="373" stroke="#344054"/>
      <text x="70" y="392" text-anchor="middle" font-size="13">2.7</text>
      <line x1="65" y1="368" x2="70" y2="368" stroke="#344054"/>
      <text x="60" y="372" text-anchor="end" font-size="13">-2.7</text>
      <line x1="236.50000000000003" y1="368" x2="236.50000000000003" y2="373" stroke="#344054"/>
      <text x="236.50000000000003" y="392" text-anchor="middle" font-size="13">4</text>
      <line x1="65" y1="289" x2="70" y2="289" stroke="#344054"/>
      <text x="60" y="293" text-anchor="end" font-size="13">-1.1</text>
      <line x1="402.99999999999994" y1="368" x2="402.99999999999994" y2="373" stroke="#344054"/>
      <text x="402.99999999999994" y="392" text-anchor="middle" font-size="13">5.3</text>
      <line x1="65" y1="210" x2="70" y2="210" stroke="#344054"/>
      <text x="60" y="214" text-anchor="end" font-size="13">0.4</text>
      <line x1="569.5" y1="368" x2="569.5" y2="373" stroke="#344054"/>
      <text x="569.5" y="392" text-anchor="middle" font-size="13">6.6</text>
      <line x1="65" y1="130.99999999999997" x2="70" y2="130.99999999999997" stroke="#344054"/>
      <text x="60" y="134.99999999999997" text-anchor="end" font-size="13">1.9</text>
      <line x1="736" y1="368" x2="736" y2="373" stroke="#344054"/>
      <text x="736" y="392" text-anchor="middle" font-size="13">8</text>
      <line x1="65" y1="52" x2="70" y2="52" stroke="#344054"/>
      <text x="60" y="56" text-anchor="end" font-size="13">3.5</text><polyline points="70,230.3849383818749 736,230.3849383818749" fill="none" stroke="#d64545" stroke-width="2" stroke-dasharray=""/><circle cx="245.35999606900162" cy="280.7092812471276" r="4.5" fill="#2364aa" opacity="0.82"/><circle cx="353.68250429859575" cy="358.66275382673876" r="4.5" fill="#2364aa" opacity="0.82"/><circle cx="70" cy="236.12770559203156" r="4.5" fill="#2364aa" opacity="0.82"/><circle cx="200.38549190505273" cy="183.89757027080935" r="4.5" fill="#2364aa" opacity="0.82"/><circle cx="299.51667366625566" cy="291.7588470956456" r="4.5" fill="#2364aa" opacity="0.82"/><circle cx="464.667415581701" cy="227.69417284550065" r="4.5" fill="#2364aa" opacity="0.82"/><circle cx="300.8430939345526" cy="199.49031843811372" r="4.5" fill="#2364aa" opacity="0.82"/><circle cx="276.20754998486166" cy="368" r="4.5" fill="#2364aa" opacity="0.82"/><circle cx="99.39884801263722" cy="354.4625150922377" r="4.5" fill="#2364aa" opacity="0.82"/><circle cx="505.96500962960846" cy="230.20162364779253" r="4.5" fill="#2364aa" opacity="0.82"/><circle cx="475.2111680796709" cy="220.00518565536672" r="4.5" fill="#2364aa" opacity="0.82"/><circle cx="736" cy="221.08025416782934" r="4.5" fill="#2364aa" opacity="0.82"/><circle cx="591.6817495241777" cy="241.90365973744073" r="4.5" fill="#2364aa" opacity="0.82"/><circle cx="728.2876749264425" cy="215.5705709074418" r="4.5" fill="#2364aa" opacity="0.82"/><circle cx="107.40627721273052" cy="243.62714489538806" r="4.5" fill="#2364aa" opacity="0.82"/><circle cx="646.5624891210424" cy="241.56839468387528" r="4.5" fill="#2364aa" opacity="0.82"/><circle cx="432.7965758992555" cy="321.4137754508726" r="4.5" fill="#2364aa" opacity="0.82"/><circle cx="172.0755437081984" cy="254.327367422502" r="4.5" fill="#2364aa" opacity="0.82"/><circle cx="120.96214024338686" cy="269.7048370109969" r="4.5" fill="#2364aa" opacity="0.82"/><circle cx="556.5838784886369" cy="214.64304560926894" r="4.5" fill="#2364aa" opacity="0.82"/><circle cx="420.52789851364565" cy="266.0616954430893" r="4.5" fill="#2364aa" opacity="0.82"/><circle cx="593.0348825679513" cy="186.35811951869786" r="4.5" fill="#2364aa" opacity="0.82"/><circle cx="642.60589525121" cy="190.24116605604388" r="4.5" fill="#2364aa" opacity="0.82"/><circle cx="90.59102859999292" cy="201.12134111580443" r="4.5" fill="#2364aa" opacity="0.82"/><circle cx="365.99423508370205" cy="291.62761167008034" r="4.5" fill="#2364aa" opacity="0.82"/><circle cx="477.51421734158055" cy="192.3481814931326" r="4.5" fill="#2364aa" opacity="0.82"/><circle cx="543.7567526805794" cy="132.83014227093386" r="4.5" fill="#2364aa" opacity="0.82"/><circle cx="731.0069284849196" cy="224.92377025358155" r="4.5" fill="#2364aa" opacity="0.82"/><circle cx="88.8654220200615" cy="300.3808547778799" r="4.5" fill="#2364aa" opacity="0.82"/><circle cx="87.41661849423782" cy="103.71937804719278" r="4.5" fill="#2364aa" opacity="0.82"/><circle cx="484.7845327668262" cy="259.7228404187432" r="4.5" fill="#2364aa" opacity="0.82"/><circle cx="115.46650008233483" cy="89.54969068777405" r="4.5" fill="#2364aa" opacity="0.82"/><circle cx="656.4385943210847" cy="159.45524244460572" r="4.5" fill="#2364aa" opacity="0.82"/><circle cx="731.4624905158332" cy="272.7312000761151" r="4.5" fill="#2364aa" opacity="0.82"/><circle cx="663.5536283386714" cy="288.6115202423159" r="4.5" fill="#2364aa" opacity="0.82"/><circle cx="130.66021313861137" cy="245.83638472055316" r="4.5" fill="#2364aa" opacity="0.82"/><circle cx="735.0609856941925" cy="284.57961829733927" r="4.5" fill="#2364aa" opacity="0.82"/><circle cx="241.62113624971676" cy="183.6915996458288" r="4.5" fill="#2364aa" opacity="0.82"/><circle cx="389.76221547549403" cy="123.80083778369098" r="4.5" fill="#2364aa" opacity="0.82"/><circle cx="462.003155866267" cy="286.56730097871866" r="4.5" fill="#2364aa" opacity="0.82"/><circle cx="273.38186596793753" cy="285.05677460686377" r="4.5" fill="#2364aa" opacity="0.82"/><circle cx="406.99891385038626" cy="296.78441944379836" r="4.5" fill="#2364aa" opacity="0.82"/><circle cx="345.9185586926525" cy="160.5897094773926" r="4.5" fill="#2364aa" opacity="0.82"/><circle cx="238.1521524446636" cy="127.363453617115" r="4.5" fill="#2364aa" opacity="0.82"/><circle cx="304.1300805578237" cy="164.8083933061022" r="4.5" fill="#2364aa" opacity="0.82"/><circle cx="81.55825223047576" cy="223.70054397240477" r="4.5" fill="#2364aa" opacity="0.82"/><circle cx="704.1184584815805" cy="245.24442651967993" r="4.5" fill="#2364aa" opacity="0.82"/><circle cx="537.0634624590906" cy="207.97945571360054" r="4.5" fill="#2364aa" opacity="0.82"/><circle cx="709.0782919999316" cy="241.11811789407568" r="4.5" fill="#2364aa" opacity="0.82"/><circle cx="92.776559741639" cy="242.44078782317632" r="4.5" fill="#2364aa" opacity="0.82"/><circle cx="610.2476127618202" cy="220.91234134689432" r="4.5" fill="#2364aa" opacity="0.82"/><circle cx="699.159825254764" cy="311.5131591229006" r="4.5" fill="#2364aa" opacity="0.82"/><circle cx="117.24598600838122" cy="213.6731041118649" r="4.5" fill="#2364aa" opacity="0.82"/><circle cx="464.915951395334" cy="207.23989389973124" r="4.5" fill="#2364aa" opacity="0.82"/><circle cx="433.07942255867874" cy="243.46635610095456" r="4.5" fill="#2364aa" opacity="0.82"/><circle cx="175.17953959816572" cy="249.73585661694727" r="4.5" fill="#2364aa" opacity="0.82"/><circle cx="138.75479783099536" cy="153.20255029128447" r="4.5" fill="#2364aa" opacity="0.82"/><circle cx="700.6572316751024" cy="52" r="4.5" fill="#2364aa" opacity="0.82"/><circle cx="484.06097337367777" cy="267.9663944075057" r="4.5" fill="#2364aa" opacity="0.82"/><circle cx="643.0386204237668" cy="249.29304510109944" r="4.5" fill="#2364aa" opacity="0.82"/>
  </svg>