<svg xmlns="http://www.w3.org/2000/svg" width="760" height="430" viewBox="0 0 760 430">
    <rect width="100%" height="100%" fill="#fff"/>
    
    <line x1="70" y1="368" x2="736" y2="368" stroke="#344054"/>
    <line x1="70" y1="52" x2="70" y2="368" stroke="#344054"/>
    <text x="380" y="414" text-anchor="middle" font-size="18">月間架電数</text>
    <text transform="translate(20 215) rotate(-90)" text-anchor="middle" font-size="18">月間契約数</text>
    <text x="380" y="28" text-anchor="middle" font-size="22" font-weight="700">シミュレーション: 本当の傾きは0.04</text>
      <line x1="70" y1="368" x2="70" y2="373" stroke="#344054"/>
      <text x="70" y="392" text-anchor="middle" font-size="13">35.8</text>
      <line x1="65" y1="368" x2="70" y2="368" stroke="#344054"/>
      <text x="60" y="372" text-anchor="end" font-size="13">0.5</text>
      <line x1="236.5" y1="368" x2="236.5" y2="373" stroke="#344054"/>
      <text x="236.5" y="392" text-anchor="middle" font-size="13">70.7</text>
      <line x1="65" y1="289" x2="70" y2="289" stroke="#344054"/>
      <text x="60" y="293" text-anchor="end" font-size="13">3.1</text>
      <line x1="403" y1="368" x2="403" y2="373" stroke="#344054"/>
      <text x="403" y="392" text-anchor="middle" font-size="13">105.6</text>
      <line x1="65" y1="210" x2="70" y2="210" stroke="#344054"/>
      <text x="60" y="214" text-anchor="end" font-size="13">5.8</text>
      <line x1="569.5" y1="368" x2="569.5" y2="373" stroke="#344054"/>
      <text x="569.5" y="392" text-anchor="middle" font-size="13">140.5</text>
      <line x1="65" y1="130.99999999999997" x2="70" y2="130.99999999999997" stroke="#344054"/>
      <text x="60" y="134.99999999999997" text-anchor="end" font-size="13">8.5</text>
      <line x1="736" y1="368" x2="736" y2="373" stroke="#344054"/>
      <text x="736" y="392" text-anchor="middle" font-size="13">175.4</text>
      <line x1="65" y1="52" x2="70" y2="52" stroke="#344054"/>
      <text x="60" y="56" text-anchor="end" font-size="13">11.2</text><polyline points="42.344835241013314,309.75888834309643 757.8497467616189,141.57001025228425" fill="none" stroke="#d64545" stroke-width="3" stroke-dasharray=""/><circle cx="245.35999606900162" cy="291.0988326097551" r="4.5" fill="#2364aa" opacity="0.82"/><circle cx="353.6825042985958" cy="310.65282560538094" r="4.5" fill="#2364aa" opacity="0.82"/><circle cx="70" cy="306.5745141216563" r="4.5" fill="#2364aa" opacity="0.82"/><circle cx="200.38549190505273" cy="245.76378525283226" r="4.5" fill="#2364aa" opacity="0.82"/><circle cx="299.5166736662557" cy="284.7495018320905" r="4.5" fill="#2364aa" opacity="0.82"/><circle cx="464.667415581701" cy="208.93252355836435" r="4.5" fill="#2364aa" opacity="0.82"/><circle cx="300.84309393455266" cy="231.15441104446805" r="4.5" fill="#2364aa" opacity="0.82"/><circle cx="276.20754998486166" cy="334.2564165440557" r="4.5" fill="#2364aa" opacity="0.82"/><circle cx="99.39884801263723" cy="368" r="4.5" fill="#2364aa" opacity="0.82"/><circle cx="505.9650096296085" cy="200.67298326411094" r="4.5" fill="#2364aa" opacity="0.82"/><circle cx="475.2111680796709" cy="202.0138332869284" r="4.5" fill="#2364aa" opacity="0.82"/><circle cx="736" cy="141.33280584325297" r="4.5" fill="#2364aa" opacity="0.82"/><circle cx="591.6817495241777" cy="187.2818320729246" r="4.5" fill="#2364aa" opacity="0.82"/><circle cx="728.2876749264424" cy="139.96395373215364" r="4.5" fill="#2364aa" opacity="0.82"/><circle cx="107.40627721273054" cy="302.11245644906285" r="4.5" fill="#2364aa" opacity="0.82"/><circle cx="646.5624891210424" cy="174.1877803890217" r="4.5" fill="#2364aa" opacity="0.82"/><circle cx="432.7965758992555" cy="270.54545074209835" r="4.5" fill="#2364aa" opacity="0.82"/><circle cx="172.07554370819838" cy="293.0902637866441" r="4.5" fill="#2364aa" opacity="0.82"/><circle cx="120.96214024338684" cy="313.9853367656857" r="4.5" fill="#2364aa" opacity="0.82"/><circle cx="556.5838784886367" cy="179.78957053305882" r="4.5" fill="#2364aa" opacity="0.82"/><circle cx="420.52789851364565" cy="241.46460526506695" r="4.5" fill="#2364aa" opacity="0.82"/><circle cx="593.0348825679513" cy="154.887280625187" r="4.5" fill="#2364aa" opacity="0.82"/><circle cx="642.60589525121" cy="145.4773440683431" r="4.5" fill="#2364aa" opacity="0.82"/><circle cx="90.59102859999292" cy="281.51881967861686" r="4.5" fill="#2364aa" opacity="0.82"/><circle cx="365.99423508370205" cy="269.04728721733125" r="4.5" fill="#2364aa" opacity="0.82"/><circle cx="477.51421734158055" cy="185.50108392120754" r="4.5" fill="#2364aa" opacity="0.82"/><circle cx="543.7567526805794" cy="135.55937990026248" r="4.5" fill="#2364aa" opacity="0.82"/><circle cx="731.0069284849195" cy="144.72604975169384" r="4.5" fill="#2364aa" opacity="0.82"/><circle cx="88.86542202006153" cy="339.24490367247085" r="4.5" fill="#2364aa" opacity="0.82"/><circle cx="87.41661849423784" cy="226.01724900505263" r="4.5" fill="#2364aa" opacity="0.82"/><circle cx="484.7845327668262" cy="222.69966815067045" r="4.5" fill="#2364aa" opacity="0.82"/><circle cx="115.46650008233483" cy="211.2410323848274" r="4.5" fill="#2364aa" opacity="0.82"/><circle cx="656.4385943210848" cy="124.44750754162621" r="4.5" fill="#2364aa" opacity="0.82"/><circle cx="731.4624905158332" cy="172.22683382121545" r="4.5" fill="#2364aa" opacity="0.82"/><circle cx="663.5536283386713" cy="197.36028768752374" r="4.5" fill="#2364aa" opacity="0.82"/><circle cx="130.66021313861137" cy="297.92210517719064" r="4.5" fill="#2364aa" opacity="0.82"/><circle cx="735.0609856941925" cy="178.22319332902433" r="4.5" fill="#2364aa" opacity="0.82"/><circle cx="241.62113624971684" cy="235.95185844125353" r="4.5" fill="#2364aa" opacity="0.82"/><circle cx="389.762215475494" cy="166.54358001833072" r="4.5" fill="#2364aa" opacity="0.82"/><circle cx="462.00315586626704" cy="243.55689057495815" r="4.5" fill="#2364aa" opacity="0.82"/><circle cx="273.38186596793753" cy="287.022515727291" r="4.5" fill="#2364aa" opacity="0.82"/><circle cx="406.99891385038626" cy="262.3865531518347" r="4.5" fill="#2364aa" opacity="0.82"/><circle cx="345.91855869265254" cy="198.09447536616617" r="4.5" fill="#2364aa" opacity="0.82"/><circle cx="238.1521524446636" cy="204.2388694554542" r="4.5" fill="#2364aa" opacity="0.82"/><circle cx="304.1300805578238" cy="210.35361765000823" r="4.5" fill="#2364aa" opacity="0.82"/><circle cx="81.55825223047573" cy="296.68114781632084" r="4.5" fill="#2364aa" opacity="0.82"/><circle cx="704.1184584815804" cy="162.781327316425" r="4.5" fill="#2364aa" opacity="0.82"/><circle cx="537.0634624590906" cy="180.53000727615574" r="4.5" fill="#2364aa" opacity="0.82"/><circle cx="709.0782919999316" cy="159.23258919292383" r="4.5" fill="#2364aa" opacity="0.82"/><circle cx="92.776559741639" cy="304.866266374447" r="4.5" fill="#2364aa" opacity="0.82"/><circle cx="610.2476127618202" cy="170.79559867332574" r="4.5" fill="#2364aa" opacity="0.82"/><circle cx="699.159825254764" cy="202.21583626578783" r="4.5" fill="#2364aa" opacity="0.82"/><circle cx="117.24598600838124" cy="282.5016213268199" r="4.5" fill="#2364aa" opacity="0.82"/><circle cx="464.915951395334" cy="197.0621497960737" r="4.5" fill="#2364aa" opacity="0.82"/><circle cx="433.07942255867874" cy="225.46583050962093" r="4.5" fill="#2364aa" opacity="0.82"/><circle cx="175.17953959816572" cy="289.70911950603187" r="4.5" fill="#2364aa" opacity="0.82"/><circle cx="138.7547978309954" cy="242.52511091702576" r="4.5" fill="#2364aa" opacity="0.82"/><circle cx="700.6572316751023" cy="52" r="4.5" fill="#2364aa" opacity="0.82"/><circle cx="484.06097337367777" cy="227.63024399686822" r="4.5" fill="#2364aa" opacity="0.82"/><circle cx="643.0386204237667" cy="179.4769490984212" r="4.5" fill="#2364aa" opacity="0.82"/>
  </svg>