<svg xmlns="http://www.w3.org/2000/svg" width="990" height="300" viewBox="0 0 990 300"><g transform="translate(0,0)">
    <rect width="100%" height="100%" fill="#fff"/>
    
    <line x1="70" y1="238" x2="306" y2="238" stroke="#344054"/>
    <line x1="70" y1="52" x2="70" y2="238" stroke="#344054"/>
    <text x="165" y="284" text-anchor="middle" font-size="18">架電数</text>
    <text transform="translate(20 150) rotate(-90)" text-anchor="middle" font-size="18">契約数</text>
    <text x="165" y="28" text-anchor="middle" font-size="22" font-weight="700">架電数</text>
      <line x1="70" y1="238" x2="70" y2="243" stroke="#344054"/>
      <text x="70" y="262" text-anchor="middle" font-size="13">41.6</text>
      <line x1="65" y1="238" x2="70" y2="238" stroke="#344054"/>
      <text x="60" y="242" text-anchor="end" font-size="13">2.4</text>
      <line x1="129" y1="238" x2="129" y2="243" stroke="#344054"/>
      <text x="129" y="262" text-anchor="middle" font-size="13">75</text>
      <line x1="65" y1="191.5" x2="70" y2="191.5" stroke="#344054"/>
      <text x="60" y="195.5" text-anchor="end" font-size="13">6.2</text>
      <line x1="188" y1="238" x2="188" y2="243" stroke="#344054"/>
      <text x="188" y="262" text-anchor="middle" font-size="13">108.3</text>
      <line x1="65" y1="145" x2="70" y2="145" stroke="#344054"/>
      <text x="60" y="149" text-anchor="end" font-size="13">10</text>
      <line x1="247" y1="238" x2="247" y2="243" stroke="#344054"/>
      <text x="247" y="262" text-anchor="middle" font-size="13">141.6</text>
      <line x1="65" y1="98.49999999999997" x2="70" y2="98.49999999999997" stroke="#344054"/>
      <text x="60" y="102.49999999999997" text-anchor="end" font-size="13">13.8</text>
      <line x1="306" y1="238" x2="306" y2="243" stroke="#344054"/>
      <text x="306" y="262" text-anchor="middle" font-size="13">174.9</text>
      <line x1="65" y1="52" x2="70" y2="52" stroke="#344054"/>
      <text x="60" y="56" text-anchor="end" font-size="13">17.6</text><circle cx="137.42400594275585" cy="223.1039655273896" r="4.5" fill="#2364aa" opacity="0.82"/><circle cx="213.39811068288657" cy="200.15248436072488" r="4.5" fill="#2364aa" opacity="0.82"/><circle cx="217.0507557161222" cy="89.03665411405103" r="4.5" fill="#2364aa" opacity="0.82"/><circle cx="276.41155272464783" cy="180.03995811309062" r="4.5" fill="#2364aa" opacity="0.82"/><circle cx="198.1069714211206" cy="142.2100984297277" r="4.5" fill="#2364aa" opacity="0.82"/><circle cx="217.84859514278085" cy="53.32346376836614" r="4.5" fill="#2364aa" opacity="0.82"/><circle cx="220.36723179829727" cy="138.82643725100223" r="4.5" fill="#2364aa" opacity="0.82"/><circle cx="97.68885543400111" cy="166.69885283663092" r="4.5" fill="#2364aa" opacity="0.82"/><circle cx="147.13155019021713" cy="180.74202157025644" r="4.5" fill="#2364aa" opacity="0.82"/><circle cx="80.6785895284079" cy="106.84191122120237" r="4.5" fill="#2364aa" opacity="0.82"/><circle cx="263.8310835992944" cy="173.98865414082536" r="4.5" fill="#2364aa" opacity="0.82"/><circle cx="113.11157108545402" cy="132.07721557245407" r="4.5" fill="#2364aa" opacity="0.82"/><circle cx="251.45332741794985" cy="196.55059692080945" r="4.5" fill="#2364aa" opacity="0.82"/><circle cx="126.48990560780031" cy="207.5270936515076" r="4.5" fill="#2364aa" opacity="0.82"/><circle cx="258.0504503321363" cy="117.83003170332522" r="4.5" fill="#2364aa" opacity="0.82"/><circle cx="203.60864734461984" cy="173.19598273566248" r="4.5" fill="#2364aa" opacity="0.82"/><circle cx="218.50091366851396" cy="119.49264721363623" r="4.5" fill="#2364aa" opacity="0.82"/><circle cx="164.15152120969623" cy="166.51092436719387" r="4.5" fill="#2364aa" opacity="0.82"/><circle cx="285.77386956848386" cy="149.0120781789974" r="4.5" fill="#2364aa" opacity="0.82"/><circle cx="188.2482480294566" cy="165.30715661198374" r="4.5" fill="#2364aa" opacity="0.82"/><circle cx="263.31725245773475" cy="200.60906580683184" r="4.5" fill="#2364aa" opacity="0.82"/><circle cx="109.45626813279392" cy="198.20981233229497" r="4.5" fill="#2364aa" opacity="0.82"/><circle cx="166.43756085765415" cy="194.44767110961413" r="4.5" fill="#2364aa" opacity="0.82"/><circle cx="256.7554791504955" cy="147.8761257065321" r="4.5" fill="#2364aa" opacity="0.82"/><circle cx="93.24963696278922" cy="199.25748628911825" r="4.5" fill="#2364aa" opacity="0.82"/><circle cx="278.81654083157366" cy="145.54315658092702" r="4.5" fill="#2364aa" opacity="0.82"/><circle cx="154.76877090692142" cy="159.51438456105285" r="4.5" fill="#2364aa" opacity="0.82"/><circle cx="284.9183275219718" cy="149.86796866836494" r="4.5" fill="#2364aa" opacity="0.82"/><circle cx="89.82795955834513" cy="145.30109196599614" r="4.5" fill="#2364aa" opacity="0.82"/><circle cx="288.93036614130153" cy="187.6013838744054" r="4.5" fill="#2364aa" opacity="0.82"/><circle cx="143.693835007887" cy="115.04679714061297" r="4.5" fill="#2364aa" opacity="0.82"/><circle cx="97.17852336213438" cy="115.37073060118699" r="4.5" fill="#2364aa" opacity="0.82"/><circle cx="106.09946883611556" cy="170.63095320669632" r="4.5" fill="#2364aa" opacity="0.82"/><circle cx="268.85676992831424" cy="165.96784320644338" r="4.5" fill="#2364aa" opacity="0.82"/><circle cx="256.9187783611043" cy="155.4257004175817" r="4.5" fill="#2364aa" opacity="0.82"/><circle cx="76.09590048529861" cy="137.4954700457779" r="4.5" fill="#2364aa" opacity="0.82"/><circle cx="282.99482000385046" cy="193.2686959148415" r="4.5" fill="#2364aa" opacity="0.82"/><circle cx="221.05022532853556" cy="130.69977683084102" r="4.5" fill="#2364aa" opacity="0.82"/><circle cx="77.4958497597582" cy="142.02826216227157" r="4.5" fill="#2364aa" opacity="0.82"/><circle cx="93.11931211236273" cy="137.74920657253867" r="4.5" fill="#2364aa" opacity="0.82"/><circle cx="170.54052888866795" cy="178.5505079226684" r="4.5" fill="#2364aa" opacity="0.82"/><circle cx="122.37575844444399" cy="131.95259587276584" r="4.5" fill="#2364aa" opacity="0.82"/><circle cx="265.2906468524918" cy="157.1188464827551" r="4.5" fill="#2364aa" opacity="0.82"/><circle cx="250.2163292939091" cy="165.32108610934105" r="4.5" fill="#2364aa" opacity="0.82"/><circle cx="185.68682876878933" cy="168.6170342940846" r="4.5" fill="#2364aa" opacity="0.82"/><circle cx="195.77710065905288" cy="52" r="4.5" fill="#2364aa" opacity="0.82"/><circle cx="215.54062095056815" cy="144.71110794618764" r="4.5" fill="#2364aa" opacity="0.82"/><circle cx="291.37741995673093" cy="145.805932306388" r="4.5" fill="#2364aa" opacity="0.82"/><circle cx="81.40763134675336" cy="197.47099563518543" r="4.5" fill="#2364aa" opacity="0.82"/><circle cx="101.62633449353926" cy="171.8497024170665" r="4.5" fill="#2364aa" opacity="0.82"/><circle cx="97.02432288696409" cy="134.04038494483262" r="4.5" fill="#2364aa" opacity="0.82"/><circle cx="306" cy="126.8080997467971" r="4.5" fill="#2364aa" opacity="0.82"/><circle cx="70" cy="139.62777164799877" r="4.5" fill="#2364aa" opacity="0.82"/><circle cx="73.55002666269303" cy="81.01162508940928" r="4.5" fill="#2364aa" opacity="0.82"/><circle cx="302.35586677265024" cy="104.08468783707056" r="4.5" fill="#2364aa" opacity="0.82"/><circle cx="202.84436557184938" cy="124.74879485924278" r="4.5" fill="#2364aa" opacity="0.82"/><circle cx="142.7866721898052" cy="110.65079583341664" r="4.5" fill="#2364aa" opacity="0.82"/><circle cx="145.1197885511041" cy="88.70338803718616" r="4.5" fill="#2364aa" opacity="0.82"/><circle cx="80.35507528636649" cy="172.0784672246446" r="4.5" fill="#2364aa" opacity="0.82"/><circle cx="204.7611112806261" cy="202.93115144013407" r="4.5" fill="#2364aa" opacity="0.82"/><circle cx="130.767483564792" cy="117.6821900269202" r="4.5" fill="#2364aa" opacity="0.82"/><circle cx="120.39647109230057" cy="189.11048949664075" r="4.5" fill="#2364aa" opacity="0.82"/><circle cx="156.85769462187088" cy="208.61518493399484" r="4.5" fill="#2364aa" opacity="0.82"/><circle cx="214.68783014354804" cy="161.4951305307488" r="4.5" fill="#2364aa" opacity="0.82"/><circle cx="138.2868840315574" cy="135.53107964123842" r="4.5" fill="#2364aa" opacity="0.82"/><circle cx="276.7090632173384" cy="140.18592545076564" r="4.5" fill="#2364aa" opacity="0.82"/><circle cx="83.67780479416649" cy="106.7181912031185" r="4.5" fill="#2364aa" opacity="0.82"/><circle cx="179.17943780303347" cy="109.33552069981465" r="4.5" fill="#2364aa" opacity="0.82"/><circle cx="300.14079383302874" cy="112.24608931776645" r="4.5" fill="#2364aa" opacity="0.82"/><circle cx="123.44122522363327" cy="122.64160047682597" r="4.5" fill="#2364aa" opacity="0.82"/><circle cx="203.43256461213426" cy="187.8295534051888" r="4.5" fill="#2364aa" opacity="0.82"/><circle cx="167.516752381343" cy="198.6476715224038" r="4.5" fill="#2364aa" opacity="0.82"/><circle cx="113.86630102702217" cy="187.29436312738085" r="4.5" fill="#2364aa" opacity="0.82"/><circle cx="286.5522774139849" cy="160.27183640322824" r="4.5" fill="#2364aa" opacity="0.82"/><circle cx="85.35877703495436" cy="102.54500956808164" r="4.5" fill="#2364aa" opacity="0.82"/><circle cx="185.75821469603133" cy="238" r="4.5" fill="#2364aa" opacity="0.82"/><circle cx="139.6305773492015" cy="178.72288383579092" r="4.5" fill="#2364aa" opacity="0.82"/><circle cx="257.00087306908074" cy="185.2558067851392" r="4.5" fill="#2364aa" opacity="0.82"/><circle cx="221.4498586200806" cy="145.62444049814192" r="4.5" fill="#2364aa" opacity="0.82"/><circle cx="302.80831356664646" cy="111.3122483914919" r="4.5" fill="#2364aa" opacity="0.82"/>
  </g><g transform="translate(330,0)">
    <rect width="100%" height="100%" fill="#fff"/>
    
    <line x1="70" y1="238" x2="306" y2="238" stroke="#344054"/>
    <line x1="70" y1="52" x2="70" y2="238" stroke="#344054"/>
    <text x="165" y="284" text-anchor="middle" font-size="18">商談数</text>
    <text transform="translate(20 150) rotate(-90)" text-anchor="middle" font-size="18">契約数</text>
    <text x="165" y="28" text-anchor="middle" font-size="22" font-weight="700">商談数</text>
      <line x1="70" y1="238" x2="70" y2="243" stroke="#344054"/>
      <text x="70" y="262" text-anchor="middle" font-size="13">5.1</text>
      <line x1="65" y1="238" x2="70" y2="238" stroke="#344054"/>
      <text x="60" y="242" text-anchor="end" font-size="13">2.4</text>
      <line x1="129" y1="238" x2="129" y2="243" stroke="#344054"/>
      <text x="129" y="262" text-anchor="middle" font-size="13">12.5</text>
      <line x1="65" y1="191.5" x2="70" y2="191.5" stroke="#344054"/>
      <text x="60" y="195.5" text-anchor="end" font-size="13">6.2</text>
      <line x1="188" y1="238" x2="188" y2="243" stroke="#344054"/>
      <text x="188" y="262" text-anchor="middle" font-size="13">19.9</text>
      <line x1="65" y1="145" x2="70" y2="145" stroke="#344054"/>
      <text x="60" y="149" text-anchor="end" font-size="13">10</text>
      <line x1="247" y1="238" x2="247" y2="243" stroke="#344054"/>
      <text x="247" y="262" text-anchor="middle" font-size="13">27.3</text>
      <line x1="65" y1="98.49999999999997" x2="70" y2="98.49999999999997" stroke="#344054"/>
      <text x="60" y="102.49999999999997" text-anchor="end" font-size="13">13.8</text>
      <line x1="306" y1="238" x2="306" y2="243" stroke="#344054"/>
      <text x="306" y="262" text-anchor="middle" font-size="13">34.7</text>
      <line x1="65" y1="52" x2="70" y2="52" stroke="#344054"/>
      <text x="60" y="56" text-anchor="end" font-size="13">17.6</text><circle cx="173.30506514256925" cy="223.1039655273896" r="4.5" fill="#2f855a" opacity="0.82"/><circle cx="155.6363913168471" cy="200.15248436072488" r="4.5" fill="#2f855a" opacity="0.82"/><circle cx="301.14606644965056" cy="89.03665411405103" r="4.5" fill="#2f855a" opacity="0.82"/><circle cx="199.75957545043042" cy="180.03995811309062" r="4.5" fill="#2f855a" opacity="0.82"/><circle cx="253.34076334426496" cy="142.2100984297277" r="4.5" fill="#2f855a" opacity="0.82"/><circle cx="236.86292610643628" cy="53.32346376836614" r="4.5" fill="#2f855a" opacity="0.82"/><circle cx="93.64935268162667" cy="138.82643725100223" r="4.5" fill="#2f855a" opacity="0.82"/><circle cx="300.8320747269441" cy="166.69885283663092" r="4.5" fill="#2f855a" opacity="0.82"/><circle cx="191.13324004912062" cy="180.74202157025644" r="4.5" fill="#2f855a" opacity="0.82"/><circle cx="290.4853767434403" cy="106.84191122120237" r="4.5" fill="#2f855a" opacity="0.82"/><circle cx="288.82728721325077" cy="173.98865414082536" r="4.5" fill="#2f855a" opacity="0.82"/><circle cx="101.43659584052057" cy="132.07721557245407" r="4.5" fill="#2f855a" opacity="0.82"/><circle cx="205.22271515148677" cy="196.55059692080945" r="4.5" fill="#2f855a" opacity="0.82"/><circle cx="229.06491812153476" cy="207.5270936515076" r="4.5" fill="#2f855a" opacity="0.82"/><circle cx="124.1859415527411" cy="117.83003170332522" r="4.5" fill="#2f855a" opacity="0.82"/><circle cx="111.18103254445614" cy="173.19598273566248" r="4.5" fill="#2f855a" opacity="0.82"/><circle cx="120.77049848006682" cy="119.49264721363623" r="4.5" fill="#2f855a" opacity="0.82"/><circle cx="242.81194469241697" cy="166.51092436719387" r="4.5" fill="#2f855a" opacity="0.82"/><circle cx="144.45337651034924" cy="149.0120781789974" r="4.5" fill="#2f855a" opacity="0.82"/><circle cx="184.46828775428585" cy="165.30715661198374" r="4.5" fill="#2f855a" opacity="0.82"/><circle cx="161.92614320360667" cy="200.60906580683184" r="4.5" fill="#2f855a" opacity="0.82"/><circle cx="231.37320475804555" cy="198.20981233229497" r="4.5" fill="#2f855a" opacity="0.82"/><circle cx="109.4680893892898" cy="194.44767110961413" r="4.5" fill="#2f855a" opacity="0.82"/><circle cx="95.39726067350207" cy="147.8761257065321" r="4.5" fill="#2f855a" opacity="0.82"/><circle cx="136.94264345906765" cy="199.25748628911825" r="4.5" fill="#2f855a" opacity="0.82"/><circle cx="251.74609796631336" cy="145.54315658092702" r="4.5" fill="#2f855a" opacity="0.82"/><circle cx="246.24499323708574" cy="159.51438456105285" r="4.5" fill="#2f855a" opacity="0.82"/><circle cx="91.40203307965156" cy="149.86796866836494" r="4.5" fill="#2f855a" opacity="0.82"/><circle cx="234.7492186926261" cy="145.30109196599614" r="4.5" fill="#2f855a" opacity="0.82"/><circle cx="101.93581560058135" cy="187.6013838744054" r="4.5" fill="#2f855a" opacity="0.82"/><circle cx="121.82251752699733" cy="115.04679714061297" r="4.5" fill="#2f855a" opacity="0.82"/><circle cx="292.91265619407045" cy="115.37073060118699" r="4.5" fill="#2f855a" opacity="0.82"/><circle cx="251.6555283147974" cy="170.63095320669632" r="4.5" fill="#2f855a" opacity="0.82"/><circle cx="287.0968277707335" cy="165.96784320644338" r="4.5" fill="#2f855a" opacity="0.82"/><circle cx="239.7230317786162" cy="155.4257004175817" r="4.5" fill="#2f855a" opacity="0.82"/><circle cx="258.67106717020584" cy="137.4954700457779" r="4.5" fill="#2f855a" opacity="0.82"/><circle cx="108.0163526802692" cy="193.2686959148415" r="4.5" fill="#2f855a" opacity="0.82"/><circle cx="214.8645227243696" cy="130.69977683084102" r="4.5" fill="#2f855a" opacity="0.82"/><circle cx="277.749675007532" cy="142.02826216227157" r="4.5" fill="#2f855a" opacity="0.82"/><circle cx="96.14908198210077" cy="137.74920657253867" r="4.5" fill="#2f855a" opacity="0.82"/><circle cx="267.9331163925385" cy="178.5505079226684" r="4.5" fill="#2f855a" opacity="0.82"/><circle cx="292.81141563616524" cy="131.95259587276584" r="4.5" fill="#2f855a" opacity="0.82"/><circle cx="146.59331195243254" cy="157.1188464827551" r="4.5" fill="#2f855a" opacity="0.82"/><circle cx="249.7627514841288" cy="165.32108610934105" r="4.5" fill="#2f855a" opacity="0.82"/><circle cx="256.37470570706347" cy="168.6170342940846" r="4.5" fill="#2f855a" opacity="0.82"/><circle cx="305.55550278967166" cy="52" r="4.5" fill="#2f855a" opacity="0.82"/><circle cx="299.1362443278622" cy="144.71110794618764" r="4.5" fill="#2f855a" opacity="0.82"/><circle cx="269.68850798427684" cy="145.805932306388" r="4.5" fill="#2f855a" opacity="0.82"/><circle cx="227.0162371754443" cy="197.47099563518543" r="4.5" fill="#2f855a" opacity="0.82"/><circle cx="146.32100104332005" cy="171.8497024170665" r="4.5" fill="#2f855a" opacity="0.82"/><circle cx="172.68943296255367" cy="134.04038494483262" r="4.5" fill="#2f855a" opacity="0.82"/><circle cx="273.45134123098796" cy="126.8080997467971" r="4.5" fill="#2f855a" opacity="0.82"/><circle cx="306" cy="139.62777164799877" r="4.5" fill="#2f855a" opacity="0.82"/><circle cx="185.17930371828345" cy="81.01162508940928" r="4.5" fill="#2f855a" opacity="0.82"/><circle cx="166.06252106554837" cy="104.08468783707056" r="4.5" fill="#2f855a" opacity="0.82"/><circle cx="259.1365049459752" cy="124.74879485924278" r="4.5" fill="#2f855a" opacity="0.82"/><circle cx="152.7536838829397" cy="110.65079583341664" r="4.5" fill="#2f855a" opacity="0.82"/><circle cx="290.7870986980221" cy="88.70338803718616" r="4.5" fill="#2f855a" opacity="0.82"/><circle cx="171.98847531061372" cy="172.0784672246446" r="4.5" fill="#2f855a" opacity="0.82"/><circle cx="145.00714435024645" cy="202.93115144013407" r="4.5" fill="#2f855a" opacity="0.82"/><circle cx="281.799737954927" cy="117.6821900269202" r="4.5" fill="#2f855a" opacity="0.82"/><circle cx="171.0570770735596" cy="189.11048949664075" r="4.5" fill="#2f855a" opacity="0.82"/><circle cx="186.4289704744255" cy="208.61518493399484" r="4.5" fill="#2f855a" opacity="0.82"/><circle cx="120.57225906611856" cy="161.4951305307488" r="4.5" fill="#2f855a" opacity="0.82"/><circle cx="289.4540074787908" cy="135.53107964123842" r="4.5" fill="#2f855a" opacity="0.82"/><circle cx="169.20501361756925" cy="140.18592545076564" r="4.5" fill="#2f855a" opacity="0.82"/><circle cx="202.2215765828858" cy="106.7181912031185" r="4.5" fill="#2f855a" opacity="0.82"/><circle cx="236.20182056510615" cy="109.33552069981465" r="4.5" fill="#2f855a" opacity="0.82"/><circle cx="194.79407815005567" cy="112.24608931776645" r="4.5" fill="#2f855a" opacity="0.82"/><circle cx="275.90839219793577" cy="122.64160047682597" r="4.5" fill="#2f855a" opacity="0.82"/><circle cx="243.1482900641699" cy="187.8295534051888" r="4.5" fill="#2f855a" opacity="0.82"/><circle cx="132.22864897024837" cy="198.6476715224038" r="4.5" fill="#2f855a" opacity="0.82"/><circle cx="158.42231018329937" cy="187.29436312738085" r="4.5" fill="#2f855a" opacity="0.82"/><circle cx="202.45225770472123" cy="160.27183640322824" r="4.5" fill="#2f855a" opacity="0.82"/><circle cx="258.05001322118983" cy="102.54500956808164" r="4.5" fill="#2f855a" opacity="0.82"/><circle cx="107.54374275456942" cy="238" r="4.5" fill="#2f855a" opacity="0.82"/><circle cx="122.95740776913485" cy="178.72288383579092" r="4.5" fill="#2f855a" opacity="0.82"/><circle cx="70" cy="185.2558067851392" r="4.5" fill="#2f855a" opacity="0.82"/><circle cx="132.93234605580147" cy="145.62444049814192" r="4.5" fill="#2f855a" opacity="0.82"/><circle cx="241.68542388037434" cy="111.3122483914919" r="4.5" fill="#2f855a" opacity="0.82"/>
  </g><g transform="translate(660,0)">
    <rect width="100%" height="100%" fill="#fff"/>
    
    <line x1="70" y1="238" x2="306" y2="238" stroke="#344054"/>
    <line x1="70" y1="52" x2="70" y2="238" stroke="#344054"/>
    <text x="165" y="284" text-anchor="middle" font-size="18">提案書提出数</text>
    <text transform="translate(20 150) rotate(-90)" text-anchor="middle" font-size="18">契約数</text>
    <text x="165" y="28" text-anchor="middle" font-size="22" font-weight="700">提案書提出数</text>
      <line x1="70" y1="238" x2="70" y2="243" stroke="#344054"/>
      <text x="70" y="262" text-anchor="middle" font-size="13">1</text>
      <line x1="65" y1="238" x2="70" y2="238" stroke="#344054"/>
      <text x="60" y="242" text-anchor="end" font-size="13">2.4</text>
      <line x1="129" y1="238" x2="129" y2="243" stroke="#344054"/>
      <text x="129" y="262" text-anchor="middle" font-size="13">5.2</text>
      <line x1="65" y1="191.5" x2="70" y2="191.5" stroke="#344054"/>
      <text x="60" y="195.5" text-anchor="end" font-size="13">6.2</text>
      <line x1="188" y1="238" x2="188" y2="243" stroke="#344054"/>
      <text x="188" y="262" text-anchor="middle" font-size="13">9.4</text>
      <line x1="65" y1="145" x2="70" y2="145" stroke="#344054"/>
      <text x="60" y="149" text-anchor="end" font-size="13">10</text>
      <line x1="247" y1="238" x2="247" y2="243" stroke="#344054"/>
      <text x="247" y="262" text-anchor="middle" font-size="13">13.6</text>
      <line x1="65" y1="98.49999999999997" x2="70" y2="98.49999999999997" stroke="#344054"/>
      <text x="60" y="102.49999999999997" text-anchor="end" font-size="13">13.8</text>
      <line x1="306" y1="238" x2="306" y2="243" stroke="#344054"/>
      <text x="306" y="262" text-anchor="middle" font-size="13">17.8</text>
      <line x1="65" y1="52" x2="70" y2="52" stroke="#344054"/>
      <text x="60" y="56" text-anchor="end" font-size="13">17.6</text><circle cx="78.63100595923261" cy="223.1039655273896" r="4.5" fill="#d64545" opacity="0.82"/><circle cx="147.52206192596486" cy="200.15248436072488" r="4.5" fill="#d64545" opacity="0.82"/><circle cx="252.91757599961824" cy="89.03665411405103" r="4.5" fill="#d64545" opacity="0.82"/><circle cx="112.73301626366796" cy="180.03995811309062" r="4.5" fill="#d64545" opacity="0.82"/><circle cx="269.9306202533158" cy="142.2100984297277" r="4.5" fill="#d64545" opacity="0.82"/><circle cx="299.464168023354" cy="53.32346376836614" r="4.5" fill="#d64545" opacity="0.82"/><circle cx="274.55193138311523" cy="138.82643725100223" r="4.5" fill="#d64545" opacity="0.82"/><circle cx="135.96722523598265" cy="166.69885283663092" r="4.5" fill="#d64545" opacity="0.82"/><circle cx="170.81153412394374" cy="180.74202157025644" r="4.5" fill="#d64545" opacity="0.82"/><circle cx="234.6703708352865" cy="106.84191122120237" r="4.5" fill="#d64545" opacity="0.82"/><circle cx="94.41522853762893" cy="173.98865414082536" r="4.5" fill="#d64545" opacity="0.82"/><circle cx="289.32475915276723" cy="132.07721557245407" r="4.5" fill="#d64545" opacity="0.82"/><circle cx="91.83572608584353" cy="196.55059692080945" r="4.5" fill="#d64545" opacity="0.82"/><circle cx="71.33154250106838" cy="207.5270936515076" r="4.5" fill="#d64545" opacity="0.82"/><circle cx="226.29198456821644" cy="117.83003170332522" r="4.5" fill="#d64545" opacity="0.82"/><circle cx="184.55209462793664" cy="173.19598273566248" r="4.5" fill="#d64545" opacity="0.82"/><circle cx="281.59203227254375" cy="119.49264721363623" r="4.5" fill="#d64545" opacity="0.82"/><circle cx="119.59818204659432" cy="166.51092436719387" r="4.5" fill="#d64545" opacity="0.82"/><circle cx="153.90566683953185" cy="149.0120781789974" r="4.5" fill="#d64545" opacity="0.82"/><circle cx="144.5863703154238" cy="165.30715661198374" r="4.5" fill="#d64545" opacity="0.82"/><circle cx="95.43918905220224" cy="200.60906580683184" r="4.5" fill="#d64545" opacity="0.82"/><circle cx="97.41950817018159" cy="198.20981233229497" r="4.5" fill="#d64545" opacity="0.82"/><circle cx="133.88913655044436" cy="194.44767110961413" r="4.5" fill="#d64545" opacity="0.82"/><circle cx="147.32287388018125" cy="147.8761257065321" r="4.5" fill="#d64545" opacity="0.82"/><circle cx="73.11569680055071" cy="199.25748628911825" r="4.5" fill="#d64545" opacity="0.82"/><circle cx="189.8398417064198" cy="145.54315658092702" r="4.5" fill="#d64545" opacity="0.82"/><circle cx="179.99521224508288" cy="159.51438456105285" r="4.5" fill="#d64545" opacity="0.82"/><circle cx="286.02707892968334" cy="149.86796866836494" r="4.5" fill="#d64545" opacity="0.82"/><circle cx="205.94657623883262" cy="145.30109196599614" r="4.5" fill="#d64545" opacity="0.82"/><circle cx="86.02444225227838" cy="187.6013838744054" r="4.5" fill="#d64545" opacity="0.82"/><circle cx="295.96533671601776" cy="115.04679714061297" r="4.5" fill="#d64545" opacity="0.82"/><circle cx="225.2643826565209" cy="115.37073060118699" r="4.5" fill="#d64545" opacity="0.82"/><circle cx="164.22625006315496" cy="170.63095320669632" r="4.5" fill="#d64545" opacity="0.82"/><circle cx="76.37279336969715" cy="165.96784320644338" r="4.5" fill="#d64545" opacity="0.82"/><circle cx="108.22999118334721" cy="155.4257004175817" r="4.5" fill="#d64545" opacity="0.82"/><circle cx="210.8244208377832" cy="137.4954700457779" r="4.5" fill="#d64545" opacity="0.82"/><circle cx="143.91156633853277" cy="193.2686959148415" r="4.5" fill="#d64545" opacity="0.82"/><circle cx="224.47141318078266" cy="130.69977683084102" r="4.5" fill="#d64545" opacity="0.82"/><circle cx="173.05752518359907" cy="142.02826216227157" r="4.5" fill="#d64545" opacity="0.82"/><circle cx="275.87249726498" cy="137.74920657253867" r="4.5" fill="#d64545" opacity="0.82"/><circle cx="95.35832262000329" cy="178.5505079226684" r="4.5" fill="#d64545" opacity="0.82"/><circle cx="142.4830450842743" cy="131.95259587276584" r="4.5" fill="#d64545" opacity="0.82"/><circle cx="121.32285434921306" cy="157.1188464827551" r="4.5" fill="#d64545" opacity="0.82"/><circle cx="82.28491658207761" cy="165.32108610934105" r="4.5" fill="#d64545" opacity="0.82"/><circle cx="176.4383756582909" cy="168.6170342940846" r="4.5" fill="#d64545" opacity="0.82"/><circle cx="285.047899802325" cy="52" r="4.5" fill="#d64545" opacity="0.82"/><circle cx="98.71576289671663" cy="144.71110794618764" r="4.5" fill="#d64545" opacity="0.82"/><circle cx="222.6038259896046" cy="145.805932306388" r="4.5" fill="#d64545" opacity="0.82"/><circle cx="73.25060798427937" cy="197.47099563518543" r="4.5" fill="#d64545" opacity="0.82"/><circle cx="238.60863106717787" cy="171.8497024170665" r="4.5" fill="#d64545" opacity="0.82"/><circle cx="306" cy="134.04038494483262" r="4.5" fill="#d64545" opacity="0.82"/><circle cx="130.8430070370766" cy="126.8080997467971" r="4.5" fill="#d64545" opacity="0.82"/><circle cx="150.28292389789232" cy="139.62777164799877" r="4.5" fill="#d64545" opacity="0.82"/><circle cx="299.63866122218576" cy="81.01162508940928" r="4.5" fill="#d64545" opacity="0.82"/><circle cx="196.81931247387993" cy="104.08468783707056" r="4.5" fill="#d64545" opacity="0.82"/><circle cx="240.2252200445396" cy="124.74879485924278" r="4.5" fill="#d64545" opacity="0.82"/><circle cx="280.4372311338384" cy="110.65079583341664" r="4.5" fill="#d64545" opacity="0.82"/><circle cx="264.924399361194" cy="88.70338803718616" r="4.5" fill="#d64545" opacity="0.82"/><circle cx="145.50747670840246" cy="172.0784672246446" r="4.5" fill="#d64545" opacity="0.82"/><circle cx="70" cy="202.93115144013407" r="4.5" fill="#d64545" opacity="0.82"/><circle cx="153.41519440666184" cy="117.6821900269202" r="4.5" fill="#d64545" opacity="0.82"/><circle cx="173.6198285951732" cy="189.11048949664075" r="4.5" fill="#d64545" opacity="0.82"/><circle cx="90.71329985999073" cy="208.61518493399484" r="4.5" fill="#d64545" opacity="0.82"/><circle cx="237.9827694778999" cy="161.4951305307488" r="4.5" fill="#d64545" opacity="0.82"/><circle cx="139.91908414679648" cy="135.53107964123842" r="4.5" fill="#d64545" opacity="0.82"/><circle cx="151.26637210936366" cy="140.18592545076564" r="4.5" fill="#d64545" opacity="0.82"/><circle cx="238.17931893416898" cy="106.7181912031185" r="4.5" fill="#d64545" opacity="0.82"/><circle cx="200.48425509352708" cy="109.33552069981465" r="4.5" fill="#d64545" opacity="0.82"/><circle cx="175.6008602197012" cy="112.24608931776645" r="4.5" fill="#d64545" opacity="0.82"/><circle cx="151.3336215518563" cy="122.64160047682597" r="4.5" fill="#d64545" opacity="0.82"/><circle cx="121.2864827877697" cy="187.8295534051888" r="4.5" fill="#d64545" opacity="0.82"/><circle cx="74.83133604287733" cy="198.6476715224038" r="4.5" fill="#d64545" opacity="0.82"/><circle cx="164.45705766021655" cy="187.29436312738085" r="4.5" fill="#d64545" opacity="0.82"/><circle cx="210.5563797923534" cy="160.27183640322824" r="4.5" fill="#d64545" opacity="0.82"/><circle cx="266.06293200851485" cy="102.54500956808164" r="4.5" fill="#d64545" opacity="0.82"/><circle cx="138.94962626466022" cy="238" r="4.5" fill="#d64545" opacity="0.82"/><circle cx="202.24322789106137" cy="178.72288383579092" r="4.5" fill="#d64545" opacity="0.82"/><circle cx="220.82228657023282" cy="185.2558067851392" r="4.5" fill="#d64545" opacity="0.82"/><circle cx="249.34732066935698" cy="145.62444049814192" r="4.5" fill="#d64545" opacity="0.82"/><circle cx="267.6844476998427" cy="111.3122483914919" r="4.5" fill="#d64545" opacity="0.82"/>
  </g></svg>