<svg xmlns="http://www.w3.org/2000/svg" width="760" height="430" viewBox="0 0 760 430">
    <rect width="100%" height="100%" fill="#fff"/>
    
    <line x1="70" y1="368" x2="736" y2="368" stroke="#344054"/>
    <line x1="70" y1="52" x2="70" y2="368" stroke="#344054"/>
    <text x="380" y="414" text-anchor="middle" font-size="18">月間架電数</text>
    <text transform="translate(20 215) rotate(-90)" text-anchor="middle" font-size="18">月間契約数</text>
    <text x="380" y="28" text-anchor="middle" font-size="22" font-weight="700">信頼区間と予測区間</text>
      <line x1="70" y1="368" x2="70" y2="373" stroke="#344054"/>
      <text x="70" y="392" text-anchor="middle" font-size="13">35.8</text>
      <line x1="65" y1="368" x2="70" y2="368" stroke="#344054"/>
      <text x="60" y="372" text-anchor="end" font-size="13">-0.2</text>
      <line x1="236.5" y1="368" x2="236.5" y2="373" stroke="#344054"/>
      <text x="236.5" y="392" text-anchor="middle" font-size="13">70.7</text>
      <line x1="65" y1="289" x2="70" y2="289" stroke="#344054"/>
      <text x="60" y="293" text-anchor="end" font-size="13">2.7</text>
      <line x1="403" y1="368" x2="403" y2="373" stroke="#344054"/>
      <text x="403" y="392" text-anchor="middle" font-size="13">105.6</text>
      <line x1="65" y1="210" x2="70" y2="210" stroke="#344054"/>
      <text x="60" y="214" text-anchor="end" font-size="13">5.5</text>
      <line x1="569.5" y1="368" x2="569.5" y2="373" stroke="#344054"/>
      <text x="569.5" y="392" text-anchor="middle" font-size="13">140.5</text>
      <line x1="65" y1="131.00000000000003" x2="70" y2="131.00000000000003" stroke="#344054"/>
      <text x="60" y="135.00000000000003" text-anchor="end" font-size="13">8.3</text>
      <line x1="736" y1="368" x2="736" y2="373" stroke="#344054"/>
      <text x="736" y="392" text-anchor="middle" font-size="13">175.4</text>
      <line x1="65" y1="52" x2="70" y2="52" stroke="#344054"/>
      <text x="60" y="56" text-anchor="end" font-size="13">11.2</text><polyline points="42.344835241013314,295.6813078614587 49.57215757960529,294.07521502206555 56.799479918197264,292.46912218267244 64.02680225678924,290.8630293432793 71.25412459538121,289.25693650388615 78.48144693397319,287.650843664493 85.70876927256518,286.04475082509987 92.93609161115715,284.43865798570675 100.16341394974913,282.8325651463136 107.3907362883411,281.2264723069204 114.61805862693308,279.6203794675273 121.84538096552507,278.0142866281342 129.07270330411706,276.408193788741 136.300025642709,274.80210094934785 143.52734798130098,273.19600810995473 150.75467031989294,271.5899152705616 157.9819926584849,269.98382243116845 165.2093149970769,268.37772959177533 172.43663733566888,266.77163675238216 179.66395967426084,265.16554391298905 186.89128201285283,263.5594510735959 194.11860435144476,261.95335823420277 201.34592669003678,260.3472653948096 208.5732490286287,258.7411725554165 215.80057136722078,257.1350797160233 223.0278937058127,255.5289868766302 230.25521604440465,253.92289403723703 237.48253838299664,252.31680119784392 244.70986072158863,250.71070835845074 251.93718306018062,249.10461551905763 259.1645053987726,247.49852267966446 266.39182773736457,245.89242984027135 273.61915007595655,244.28633700087818 280.84647241454854,242.68024416148506 288.0737947531405,241.0741513220919 295.30111709173246,239.46805848269875 302.52843943032445,237.86196564330564 309.7557617689164,236.25587280391247 316.9830841075084,234.64977996451933 324.21040644610036,233.0436871251262 331.4377287846923,231.43759428573304 338.6650511232843,229.8315014463399 345.8923734618762,228.2254086069468 353.11969580046826,226.61931576755362 360.34701813906025,225.01322292816047 367.5743404776522,223.40713008876733 374.8016628162442,221.8010372493742 382.02898515483616,220.19494440998105 389.25630749342815,218.5888515705879 396.48362983202014,216.9827587311948 403.7109521706121,215.37666589180165 410.938274509204,213.7705730524085 418.165596847796,212.16448021301537 425.392919186388,210.55838737362222 432.62024152498,208.95229453422908 439.84756386357196,207.34620169483594 447.0748862021639,205.7401088554428 454.3022085407559,204.13401601604966 461.5295308793479,202.52792317665651 468.75685321793986,200.92183033726334 475.98417555653185,199.31573749787023 483.2114978951238,197.7096446584771 490.4388202337158,196.10355181908392 497.66614257230776,194.4974589796908 504.89346491089975,192.89136614029766 512.1207872494917,191.2852733009045 519.3481095880836,189.67918046151138 526.5754319266756,188.07308762211827 533.8027542652676,186.46699478272507 541.0300766038597,184.86090194333195 548.2573989424516,183.2548091039388 555.4847212810434,181.64871626454567 562.7120436196356,180.04262342515253 569.9393659582277,178.43653058575939 577.1666882968195,176.83043774636621 584.3940106354114,175.22434490697313 591.6213329740035,173.61825206757993 598.8486553125955,172.01215922818682 606.0759776511875,170.40606638879368 613.3032999897794,168.79997354940056 620.5306223283714,167.1938807100074 627.7579446669635,165.58778787061425 634.9852670055553,163.98169503122108 642.2125893441472,162.37560219182797 649.4399116827392,160.76950935243485 656.6672340213312,159.16341651304168 663.8945563599233,157.55732367364854 671.1218786985152,155.95123083425543 678.3492010371072,154.34513799486223 685.5765233756991,152.7390451554691 692.8038457142911,151.132952316076 700.0311680528831,149.52685947668283 707.2584903914751,147.9207666372897 714.485812730067,146.31467379789657 721.7131350686591,144.7085809585034 728.940457407251,143.10248811911026 736.167779745843,141.49639527971715 743.3951020844349,139.890302440324 750.6224244230269,138.2842096009309 757.8497467616189,136.67811676153775" fill="none" stroke="#d64545" stroke-width="3" stroke-dasharray=""/><polyline points="42.344835241013314,313.094078120425 49.57215757960529,311.2344217025837 56.799479918197264,309.37620652790514 64.02680225678924,307.5194980430899 71.25412459538121,305.6643652901894 78.48144693397319,303.81088111947224 85.70876927256518,301.9591224135081 92.93609161115715,300.1091703225902 100.16341394974913,298.2611105115054 107.3907362883411,296.41503341750723 114.61805862693308,294.5710345191683 121.84538096552507,292.7292146155613 129.07270330411706,290.8896801149458 136.300025642709,289.05254333180847 143.52734798130098,287.21792279071366 150.75467031989294,285.38594353495773 157.9819926584849,283.5567374374754 165.2093149970769,281.7304435108155 172.43663733566888,279.9072082122734 179.66395967426084,278.0871857394354 186.89128201285283,276.2705383104498 194.11860435144476,274.4574364222874 201.34592669003678,272.6480590790984 208.5732490286287,270.8425939815145 215.80057136722078,269.04123766640726 223.0278937058127,267.2441955852209 230.25521604440465,265.4516821075881 237.48253838299664,263.6639204355703 244.70986072158863,261.8811424126034 251.93718306018062,260.1035882101796 259.1645053987726,258.331505874556 266.39182773736457,256.5651507154952 273.61915007595655,254.8047845193553 280.84647241454854,253.05067456992793 288.0737947531405,251.30309246243667 295.30111709173246,249.56231269922213 302.52843943032445,247.82861105998637 309.7557617689164,246.10226274514318 316.9830841075084,244.38354029784247 324.21040644610036,242.67271131853556 331.4377287846923,240.97003599532837 338.6650511232843,239.27576448351135 345.8923734618762,237.5901341780788 353.11969580046826,235.9133669331556 360.34701813906025,234.2456662913186 367.5743404776522,232.5872147930551 374.8016628162442,230.93817144127243 382.02898515483616,229.29866939717692 389.25630749342815,227.66881398147459 396.48362983202014,226.04868104845607 403.7109521706121,224.43831579019206 410.938274509204,222.8377320141927 418.165596847796,221.2469119212315 425.392919186388,219.66580639162268 432.62024152498,218.09433576927856 439.84756386357196,216.53239111461903 447.0748862021639,214.97983588105376 454.3022085407559,213.43650795629654 461.5295308793479,211.90222199991751 468.75685321793986,210.37677200266288 475.98417555653185,208.85993399120082 483.2114978951238,207.35146880380262 490.4388202337158,205.85112486750688 497.66614257230776,204.35864091484353 504.89346491089975,202.87374858743445 512.1207872494917,201.39617488397357 519.3481095880836,199.92564442050684 526.5754319266756,198.461881481001 533.8027542652676,197.00461184544886 541.0300766038597,195.55356439090488 548.2573989424516,194.10847246769518 555.4847212810434,192.6690750585523 562.7120436196356,191.23511773260748 569.9393659582277,189.80635340914 577.1666882968195,188.38254294786964 584.3940106354114,186.9634555835542 591.6213329740035,185.54886922287912 598.8486553125955,184.13857062127826 606.0759776511875,182.73235545653668 613.3032999897794,181.3300283149434 620.5306223283714,179.9314026044862 627.7579446669635,178.53630040820067 634.9852670055553,177.14455228937823 642.2125893441472,175.75599705894936 649.4399116827392,174.37048151402826 656.6672340213312,172.98786015536123 663.8945563599233,171.60799489027664 671.1218786985152,170.23075472669578 678.3492010371072,168.85601546283954 685.5765233756991,167.48365937644513 692.8038457142911,166.11357491659047 700.0311680528831,164.7456564006044 707.2584903914751,163.37980371800614 714.485812730067,162.01592204296446 721.7131350686591,160.65392155638378 728.940457407251,159.29371717840212 736.167779745843,157.9352283118208 743.3951020844349,156.57837859676548 750.6224244230269,155.22309567669984 757.8497467616189,153.8693109757699" fill="none" stroke="#2364aa" stroke-width="3" stroke-dasharray="7 6"/><polyline points="42.344835241013314,278.2685376024924 49.57215757960529,276.91600834154747 56.799479918197264,275.56203783743973 64.02680225678924,274.20656064346866 71.25412459538121,272.8495077175829 78.48144693397319,271.4908062095138 85.70876927256518,270.1303792366916 92.93609161115715,268.76814564882324 100.16341394974913,267.40401978112175 107.3907362883411,266.03791119633365 114.61805862693308,264.6697244158863 121.84538096552507,263.29935864070706 129.07270330411706,261.9267074625362 136.300025642709,260.5516585668873 143.52734798130098,259.17409342919586 150.75467031989294,257.7938870061655 157.9819926584849,256.4109074248615 165.2093149970769,255.0250156727351 172.43663733566888,253.63606529249094 179.66395967426084,252.24390208654262 186.89128201285283,250.84836383674195 194.11860435144476,249.4492800461181 201.34592669003678,248.04647171052085 208.5732490286287,246.63975112931843 215.80057136722078,245.22892176563934 223.0278937058127,243.81377816803948 230.25521604440465,242.39410596688597 237.48253838299664,240.9696819601175 244.70986072158863,239.5402743042981 251.93718306018062,238.10564282793564 259.1645053987726,236.66553948477292 266.39182773736457,235.21970896504746 273.61915007595655,233.76788948240105 280.84647241454854,232.30981375304216 288.0737947531405,230.84521018174712 295.30111709173246,229.37380426617537 302.52843943032445,227.89532022662485 309.7557617689164,226.40948286268178 316.9830841075084,224.9160196311962 324.21040644610036,223.4146629317168 331.4377287846923,221.90515257613774 338.6650511232843,220.38723840916848 345.8923734618762,218.86068303581476 353.11969580046826,217.32526460195163 360.34701813906025,215.78077956500235 367.5743404776522,214.22704538447957 374.8016628162442,212.66390305747595 382.02898515483616,211.09121942278517 389.25630749342815,209.50888915970125 396.48362983202014,207.9168364139335 403.7109521706121,206.31501599341124 410.938274509204,204.7034140906243 418.165596847796,203.08204850479925 425.392919186388,201.45096835562177 432.62024152498,199.8102532991796 439.84756386357196,198.16001227505285 447.0748862021639,196.50038182983184 454.3022085407559,194.83152407580278 461.5295308793479,193.15362435339554 468.75685321793986,191.46688867186384 475.98417555653185,189.77154100453964 483.2114978951238,188.06782051315156 490.4388202337158,186.35597877066095 497.66614257230776,184.63627704453808 504.89346491089975,182.90898369316088 512.1207872494917,181.17437171783547 519.3481095880836,179.43271650251592 526.5754319266756,177.68429376323553 533.8027542652676,175.9293777200013 541.0300766038597,174.16823949575902 548.2573989424516,172.40114574018244 555.4847212810434,170.62835747053907 562.7120436196356,168.85012911769755 569.9393659582277,167.0667077623788 577.1666882968195,165.27833254486282 584.3940106354114,163.48523423039202 591.6213329740035,161.68763491228077 598.8486553125955,159.88574783509534 606.0759776511875,158.07977732105067 613.3032999897794,156.2699187838577 620.5306223283714,154.45635881552857 627.7579446669635,152.63927533302777 634.9852670055553,150.81883777306393 642.2125893441472,148.99520732470657 649.4399116827392,147.16853719084148 656.6672340213312,145.33897287072213 663.8945563599233,143.50665245702044 671.1218786985152,141.67170694181502 678.3492010371072,139.83426052688492 685.5765233756991,137.9944309344931 692.8038457142911,136.15232971556148 700.0311680528831,134.30806255276127 707.2584903914751,132.46172955657323 714.485812730067,130.61342555282863 721.7131350686591,128.76324036062306 728.940457407251,126.91125905981843 736.167779745843,125.05756224761348 743.3951020844349,123.20222628388248 750.6224244230269,121.34532352516189 757.8497467616189,119.48692254730554" fill="none" stroke="#2364aa" stroke-width="3" stroke-dasharray="7 6"/><polyline points="42.344835241013314,368 49.57215757960529,366.33327366220834 56.799479918197264,364.6677244239512 64.02680225678924,363.0033551956439 71.25412459538121,361.3401688392579 78.48144693397319,359.6781681676557 85.70876927256518,358.0173559439331 92.93609161115715,356.3577348807698 100.16341394974913,354.69930763978795 107.3907362883411,353.0420768309207 114.61805862693308,351.38604501178827 121.84538096552507,349.73121468708507 129.07270330411706,348.07758830797513 136.300025642709,346.42516827149905 143.52734798130098,344.77395691999016 150.75467031989294,343.1239565405024 157.9819926584849,341.4751693642484 165.2093149970769,339.82759756605014 172.43663733566888,338.1812432637997 179.66395967426084,336.5361085179334 186.89128201285283,334.89219533091773 194.11860435144476,333.2495056467475 201.34592669003678,331.60804135045726 208.5732490286287,329.9678042676461 215.80057136722078,328.32879616401516 223.0278937058127,326.6910187449194 230.25521604440465,325.0544736549332 237.48253838299664,323.4191624774298 244.70986072158863,321.7850867341759 251.93718306018062,320.15224788494027 259.1645053987726,318.5206473271177 266.39182773736457,316.8902863953675 273.61915007595655,315.2611663612686 280.84647241454854,313.6332884329885 288.0737947531405,312.00665375496965 295.30111709173246,310.38126340763057 302.52843943032445,308.7571184070836 309.7557617689164,307.13421970486905 316.9830841075084,305.5125681877056 324.21040644610036,303.89216467725737 331.4377287846923,302.27300992991775 338.6650511232843,300.65510463661013 345.8923734618762,299.03844942260577 353.11969580046826,297.4230448473585 360.34701813906025,295.8088914043568 367.5743404776522,294.19598952099346 374.8016628162442,292.5843395584522 382.02898515483616,290.9739418116119 389.25630749342815,289.36479650896854 396.48362983202014,287.75690381257454 403.7109521706121,286.15026381799566 410.938274509204,284.5448765542858 418.165596847796,282.9407419839791 425.392919186388,281.3378600031001 432.62024152498,279.7362304411912 439.84756386357196,278.13585306135775 447.0748862021639,276.53672756033137 454.3022085407559,274.93885356854975 461.5295308793479,273.34223065025515 468.75685321793986,271.74685830360926 475.98417555653185,270.15273596082653 483.2114978951238,268.55986298832386 490.4388202337158,266.96823868688796 497.66614257230776,265.3778622918599 504.89346491089975,263.7887329733365 512.1207872494917,262.20084983638844 519.3481095880836,260.6142119212955 526.5754319266756,259.0288182037981 533.8027542652676,257.4446675953651 541.0300766038597,255.86175894347883 548.2573989424516,254.28009103193486 555.4847212810434,252.6996625811586 562.7120436196356,251.1204722485376 569.9393659582277,249.5425186287691 577.1666882968195,247.96580025422287 584.3940106354114,246.39031559531963 591.6213329740035,244.81606306092363 598.8486553125955,243.24304099875084 606.0759776511875,241.6712476957905 613.3032999897794,240.1006813787417 620.5306223283714,238.53134021446337 627.7579446669635,236.96322231043814 634.9852670055553,235.39632571524962 642.2125893441472,233.83064841907256 649.4399116827392,232.26618835417597 656.6672340213312,230.70294339543895 663.8945563599233,229.14091136087856 671.1218786985152,227.58009001218974 678.3492010371072,226.02047705529657 685.5765233756991,224.4620701409156 692.8038457142911,222.90486686512932 700.0311680528831,221.34886476997116 707.2584903914751,219.79406134402024 714.485812730067,218.2404540230065 721.7131350686591,216.68804019042585 728.940457407251,215.136817178164 736.167779745843,213.58678226713005 743.3951020844349,212.03793268789875 750.6224244230269,210.4902656213607 757.8497467616189,208.94377819938123" fill="none" stroke="#2f855a" stroke-width="3" stroke-dasharray="3 6"/><polyline points="42.344835241013314,223.36261572291744 49.57215757960529,221.8171563819228 56.799479918197264,220.27051994139364 64.02680225678924,218.72270349091468 71.25412459538121,217.17370416851443 78.48144693397319,215.6235191613303 85.70876927256518,214.07214570626658 92.93609161115715,212.51958109064367 100.16341394974913,210.96582265283922 107.3907362883411,209.4108677829202 114.61805862693308,207.85471392326633 121.84538096552507,206.29735856918325 129.07270330411706,204.73879926950687 136.300025642709,203.1790336271967 143.52734798130098,201.6180592999193 150.75467031989294,200.05587400062086 157.9819926584849,198.49247549808845 165.2093149970769,196.9278616175005 172.43663733566888,195.36203024096466 179.66395967426084,193.79497930804465 186.89128201285283,192.226706816274 194.11860435144476,190.65721082165803 201.34592669003678,189.08648943916194 208.5732490286287,187.51454084318684 215.80057136722078,185.9413632680315 223.0278937058127,184.366955008341 230.25521604440465,182.79131441954092 237.48253838299664,181.21443991825802 244.70986072158863,179.63632998272564 251.93718306018062,178.05698315317494 259.1645053987726,176.4763980322113 266.39182773736457,174.89457328517517 273.61915007595655,173.31150764048783 280.84647241454854,171.7271998899816 288.0737947531405,170.14164888921417 295.30111709173246,168.55485355776696 302.52843943032445,166.96681287952762 309.7557617689164,165.3775259029559 316.9830841075084,163.78699174133308 324.21040644610036,162.19520957299503 331.4377287846923,160.60217864154836 338.6650511232843,159.0078982560697 345.8923734618762,157.4123677912878 353.11969580046826,155.81558668774878 360.34701813906025,154.2175544519642 367.5743404776522,152.61827065654123 374.8016628162442,151.0177349402962 382.02898515483616,149.4159470083502 389.25630749342815,147.81290663220727 396.48362983202014,146.20861364981505 403.7109521706121,144.6030679656077 410.938274509204,142.99626955053128 418.165596847796,141.38821844205168 425.392919186388,139.77891474414434 432.62024152498,138.16835862726703 439.84756386357196,136.55655032831416 447.0748862021639,134.9434901505542 454.3022085407559,133.3291784635496 461.5295308793479,131.71361570305794 468.75685321793986,130.09680237091743 475.98417555653185,128.47873903491387 483.2114978951238,126.85942632863035 490.4388202337158,125.23886495127996 497.66614257230776,123.61705566752167 504.89346491089975,121.99399930725878 512.1207872494917,120.36969676542054 519.3481095880836,118.74414900172721 526.5754319266756,117.11735704043843 533.8027542652676,115.48932197008509 541.0300766038597,113.86004494318507 548.2573989424516,112.22952717594274 555.4847212810434,110.59776994793282 562.7120436196356,108.96477460176749 569.9393659582277,107.33054254274964 577.1666882968195,105.69507523850962 584.3940106354114,104.05837421862662 591.6213329740035,102.4204410742363 598.8486553125955,100.78127745762276 606.0759776511875,99.14088508179685 613.3032999897794,97.49926572005938 620.5306223283714,95.85642120555138 627.7579446669635,94.21235343079036 634.9852670055553,92.56706434719257 642.2125893441472,90.9205559645834 649.4399116827392,89.27283035069377 656.6672340213312,87.62388963064444 663.8945563599233,85.97373598641849 671.1218786985152,84.32237165632114 678.3492010371072,82.66979893442794 685.5765233756991,81.01602017002267 692.8038457142911,79.36103776702265 700.0311680528831,77.70485418339456 707.2584903914751,76.04747193055925 714.485812730067,74.38889357278663 721.7131350686591,72.72912172658101 728.940457407251,71.06815906005659 736.167779745843,69.40600829230425 743.3951020844349,67.74267219274924 750.6224244230269,66.07815358050101 757.8497467616189,64.41245532369419" fill="none" stroke="#2f855a" stroke-width="3" stroke-dasharray="3 6"/><circle cx="245.35999606900162" cy="278.0403767762199" r="4.5" fill="#2364aa" opacity="0.82"/><circle cx="353.6825042985958" cy="296.52642246689425" r="4.5" fill="#2364aa" opacity="0.82"/><circle cx="70" cy="292.6708492115596" r="4.5" fill="#2364aa" opacity="0.82"/><circle cx="200.38549190505273" cy="235.1813168892478" r="4.5" fill="#2364aa" opacity="0.82"/><circle cx="299.5166736662557" cy="272.03781663991583" r="4.5" fill="#2364aa" opacity="0.82"/><circle cx="464.667415581701" cy="200.36160581123806" r="4.5" fill="#2364aa" opacity="0.82"/><circle cx="300.84309393455266" cy="221.36983811923935" r="4.5" fill="#2364aa" opacity="0.82"/><circle cx="276.20754998486166" cy="318.84089607102896" r="4.5" fill="#2364aa" opacity="0.82"/><circle cx="99.39884801263723" cy="350.74156340139" r="4.5" fill="#2364aa" opacity="0.82"/><circle cx="505.9650096296085" cy="192.55316283502907" r="4.5" fill="#2364aa" opacity="0.82"/><circle cx="475.2111680796709" cy="193.8207819239635" r="4.5" fill="#2364aa" opacity="0.82"/><circle cx="736" cy="136.4538673438171" r="4.5" fill="#2364aa" opacity="0.82"/><circle cx="591.6817495241777" cy="179.89337345971452" r="4.5" fill="#2364aa" opacity="0.82"/><circle cx="728.2876749264424" cy="135.15977550921232" r="4.5" fill="#2364aa" opacity="0.82"/><circle cx="107.40627721273054" cy="288.45248818276934" r="4.5" fill="#2364aa" opacity="0.82"/><circle cx="646.5624891210424" cy="167.51445741127225" r="4.5" fill="#2364aa" opacity="0.82"/><circle cx="432.7965758992555" cy="258.6095241422656" r="4.5" fill="#2364aa" opacity="0.82"/><circle cx="172.07554370819838" cy="279.92304533061895" r="4.5" fill="#2364aa" opacity="0.82"/><circle cx="120.96214024338684" cy="299.6769275114576" r="4.5" fill="#2364aa" opacity="0.82"/><circle cx="556.5838784886367" cy="172.81030407417143" r="4.5" fill="#2364aa" opacity="0.82"/><circle cx="420.52789851364565" cy="231.11693793073837" r="4.5" fill="#2364aa" opacity="0.82"/><circle cx="593.0348825679513" cy="149.26806034204398" r="4.5" fill="#2364aa" opacity="0.82"/><circle cx="642.60589525121" cy="140.37205034679252" r="4.5" fill="#2364aa" opacity="0.82"/><circle cx="90.59102859999292" cy="268.98357917984725" r="4.5" fill="#2364aa" opacity="0.82"/><circle cx="365.99423508370205" cy="257.19318327637995" r="4.5" fill="#2364aa" opacity="0.82"/><circle cx="477.51421734158055" cy="178.20988141266363" r="4.5" fill="#2364aa" opacity="0.82"/><circle cx="543.7567526805794" cy="130.99575882359207" r="4.5" fill="#2364aa" opacity="0.82"/><circle cx="731.0069284849195" cy="139.66178819891167" r="4.5" fill="#2364aa" opacity="0.82"/><circle cx="88.86542202006153" cy="323.5569354499861" r="4.5" fill="#2364aa" opacity="0.82"/><circle cx="87.41661849423784" cy="216.51324375499493" r="4.5" fill="#2364aa" opacity="0.82"/><circle cx="484.7845327668262" cy="213.37685359313213" r="4.5" fill="#2364aa" opacity="0.82"/><circle cx="115.46650008233483" cy="202.54403472245158" r="4.5" fill="#2364aa" opacity="0.82"/><circle cx="656.4385943210848" cy="120.49076477063096" r="4.5" fill="#2364aa" opacity="0.82"/><circle cx="731.4624905158332" cy="165.66060853971206" r="4.5" fill="#2364aa" opacity="0.82"/><circle cx="663.5536283386713" cy="189.4213911400211" r="4.5" fill="#2364aa" opacity="0.82"/><circle cx="130.66021313861137" cy="284.4909942265665" r="4.5" fill="#2364aa" opacity="0.82"/><circle cx="735.0609856941925" cy="171.329475039964" r="4.5" fill="#2364aa" opacity="0.82"/><circle cx="241.62113624971684" cy="225.90527145990905" r="4.5" fill="#2364aa" opacity="0.82"/><circle cx="389.762215475494" cy="160.28774738059596" r="4.5" fill="#2364aa" opacity="0.82"/><circle cx="462.00315586626704" cy="233.09495243883538" r="4.5" fill="#2364aa" opacity="0.82"/><circle cx="273.38186596793753" cy="274.18668918638826" r="4.5" fill="#2364aa" opacity="0.82"/><circle cx="406.99891385038626" cy="250.89622723800233" r="4.5" fill="#2364aa" opacity="0.82"/><circle cx="345.91855869265254" cy="190.11548093415928" r="4.5" fill="#2364aa" opacity="0.82"/><circle cx="238.1521524446636" cy="195.92429706196992" r="4.5" fill="#2364aa" opacity="0.82"/><circle cx="304.1300805578238" cy="201.70508641465" r="4.5" fill="#2364aa" opacity="0.82"/><circle cx="81.55825223047573" cy="283.31781213131103" r="4.5" fill="#2364aa" opacity="0.82"/><circle cx="704.1184584815804" cy="156.73097126009466" r="4.5" fill="#2364aa" opacity="0.82"/><circle cx="537.0634624590906" cy="173.5103016381987" r="4.5" fill="#2364aa" opacity="0.82"/><circle cx="709.0782919999316" cy="153.37604855402867" r="4.5" fill="#2364aa" opacity="0.82"/><circle cx="92.776559741639" cy="291.05589793726153" r="4.5" fill="#2364aa" opacity="0.82"/><circle cx="610.2476127618202" cy="164.3075407369412" r="4.5" fill="#2364aa" opacity="0.82"/><circle cx="699.159825254764" cy="194.01175244838188" r="4.5" fill="#2364aa" opacity="0.82"/><circle cx="117.24598600838124" cy="269.91270481559917" r="4.5" fill="#2364aa" opacity="0.82"/><circle cx="464.915951395334" cy="189.1395361406509" r="4.5" fill="#2364aa" opacity="0.82"/><circle cx="433.07942255867874" cy="215.99194114925533" r="4.5" fill="#2364aa" opacity="0.82"/><circle cx="175.17953959816572" cy="276.72656327848046" r="4.5" fill="#2364aa" opacity="0.82"/><circle cx="138.7547978309954" cy="232.11952374232757" r="4.5" fill="#2364aa" opacity="0.82"/><circle cx="700.6572316751023" cy="52" r="4.5" fill="#2364aa" opacity="0.82"/><circle cx="484.06097337367777" cy="218.03814453225317" r="4.5" fill="#2364aa" opacity="0.82"/><circle cx="643.0386204237667" cy="172.51475655475238" r="4.5" fill="#2364aa" opacity="0.82"/>
  </svg>