<svg xmlns="http://www.w3.org/2000/svg" width="760" height="430" viewBox="0 0 760 430">
    <rect width="100%" height="100%" fill="#fff"/>
    <text x="380" y="30" text-anchor="middle" font-size="22" font-weight="700">残差の分布</text>
    <line x1="70" y1="368" x2="736" y2="368" stroke="#344054"/>
    <line x1="70" y1="52" x2="70" y2="368" stroke="#344054"/>
    <text x="380" y="414" text-anchor="middle" font-size="18">残差</text>
    <rect x="70" y="289" width="54.5" height="79" fill="#7cc4e8"/><rect x="125.5" y="341.6666666666667" width="54.5" height="26.333333333333314" fill="#7cc4e8"/><rect x="181" y="236.33333333333331" width="54.5" height="131.66666666666669" fill="#7cc4e8"/><rect x="236.5" y="131" width="54.5" height="237" fill="#7cc4e8"/><rect x="292" y="52" width="54.5" height="316" fill="#7cc4e8"/><rect x="347.5" y="78.33333333333337" width="54.5" height="289.66666666666663" fill="#7cc4e8"/><rect x="403" y="131" width="54.5" height="237" fill="#7cc4e8"/><rect x="458.5" y="289" width="54.5" height="79" fill="#7cc4e8"/><rect x="514" y="315.3333333333333" width="54.5" height="52.666666666666686" fill="#7cc4e8"/><rect x="569.5" y="315.3333333333333" width="54.5" height="52.666666666666686" fill="#7cc4e8"/><rect x="625" y="315.3333333333333" width="54.5" height="52.666666666666686" fill="#7cc4e8"/><rect x="680.5" y="341.6666666666667" width="54.5" height="26.333333333333314" fill="#7cc4e8"/>
  </svg>