<svg xmlns="http://www.w3.org/2000/svg" width="760" height="430" viewBox="0 0 760 430">
    <rect width="100%" height="100%" fill="#fff"/>
    <text x="380" y="30" text-anchor="middle" font-size="22" font-weight="700">推定された架電数係数の分布</text>
    <line x1="70" y1="368" x2="736" y2="368" stroke="#344054"/>
    <line x1="70" y1="52" x2="70" y2="368" stroke="#344054"/>
    <text x="380" y="414" text-anchor="middle" font-size="18">推定された係数</text>
    <rect x="70" y="361.6161616161616" width="21.2" height="6.383838383838395" fill="#7cc4e8"/><rect x="92.2" y="364.80808080808083" width="21.2" height="3.191919191919169" fill="#7cc4e8"/><rect x="114.4" y="364.80808080808083" width="21.2" height="3.191919191919169" fill="#7cc4e8"/><rect x="136.6" y="355.2323232323232" width="21.2" height="12.76767676767679" fill="#7cc4e8"/><rect x="158.8" y="348.8484848484849" width="21.2" height="19.151515151515127" fill="#7cc4e8"/><rect x="181" y="339.27272727272725" width="21.2" height="28.727272727272748" fill="#7cc4e8"/><rect x="203.2" y="336.0808080808081" width="21.2" height="31.919191919191917" fill="#7cc4e8"/><rect x="225.4" y="310.54545454545456" width="21.2" height="57.45454545454544" fill="#7cc4e8"/><rect x="247.6" y="265.85858585858585" width="21.2" height="102.14141414141415" fill="#7cc4e8"/><rect x="269.79999999999995" y="259.47474747474746" width="21.2" height="108.52525252525254" fill="#7cc4e8"/><rect x="292" y="246.70707070707073" width="21.2" height="121.29292929292927" fill="#7cc4e8"/><rect x="314.2" y="189.25252525252526" width="21.2" height="178.74747474747474" fill="#7cc4e8"/><rect x="336.4" y="176.48484848484847" width="21.2" height="191.51515151515153" fill="#7cc4e8"/><rect x="358.59999999999997" y="147.75757575757575" width="21.2" height="220.24242424242425" fill="#7cc4e8"/><rect x="380.8" y="87.11111111111114" width="21.2" height="280.88888888888886" fill="#7cc4e8"/><rect x="403" y="52" width="21.2" height="316" fill="#7cc4e8"/><rect x="425.2" y="103.0707070707071" width="21.2" height="264.9292929292929" fill="#7cc4e8"/><rect x="447.4" y="119.03030303030303" width="21.2" height="248.96969696969697" fill="#7cc4e8"/><rect x="469.59999999999997" y="179.6767676767677" width="21.2" height="188.3232323232323" fill="#7cc4e8"/><rect x="491.8" y="189.25252525252526" width="21.2" height="178.74747474747474" fill="#7cc4e8"/><rect x="514" y="179.6767676767677" width="21.2" height="188.3232323232323" fill="#7cc4e8"/><rect x="536.2" y="208.4040404040404" width="21.2" height="159.5959595959596" fill="#7cc4e8"/><rect x="558.4" y="259.47474747474746" width="21.2" height="108.52525252525254" fill="#7cc4e8"/><rect x="580.5999999999999" y="304.16161616161617" width="21.2" height="63.838383838383834" fill="#7cc4e8"/><rect x="602.8" y="339.27272727272725" width="21.2" height="28.727272727272748" fill="#7cc4e8"/><rect x="625" y="336.0808080808081" width="21.2" height="31.919191919191917" fill="#7cc4e8"/><rect x="647.1999999999999" y="342.4646464646465" width="21.2" height="25.535353535353522" fill="#7cc4e8"/><rect x="669.4" y="364.80808080808083" width="21.2" height="3.191919191919169" fill="#7cc4e8"/><rect x="691.6" y="358.42424242424244" width="21.2" height="9.575757575757564" fill="#7cc4e8"/><rect x="713.8" y="358.42424242424244" width="21.2" height="9.575757575757564" fill="#7cc4e8"/><line x1="416.4104759309564" y1="52" x2="416.4104759309564" y2="368" stroke="#d64545" stroke-width="3"/>
  </svg>