<svg xmlns="http://www.w3.org/2000/svg" width="760" height="430" viewBox="0 0 760 430">
  <rect width="100%" height="100%" fill="#fff"/>
  <text x="380" y="30" text-anchor="middle" font-size="22" font-weight="700">等分散性の確認</text>
  <line x1="72" y1="368" x2="734" y2="368" stroke="#344054"/>
  <line x1="72" y1="52" x2="72" y2="368" stroke="#344054"/>
  <text x="380" y="414" text-anchor="middle" font-size="18">予測された契約数</text>
  <text transform="translate(22 215) rotate(-90)" text-anchor="middle" font-size="18">残差</text>
  <line x1="72" y1="368" x2="72" y2="373" stroke="#344054"/>
      <text x="72" y="392" text-anchor="middle" font-size="13">3.8</text>
      <line x1="67" y1="368" x2="72" y2="368" stroke="#344054"/>
      <text x="62" y="372" text-anchor="end" font-size="13">-4.2</text><line x1="237.5" y1="368" x2="237.5" y2="373" stroke="#344054"/>
      <text x="237.5" y="392" text-anchor="middle" font-size="13">6.7</text>
      <line x1="67" y1="289" x2="72" y2="289" stroke="#344054"/>
      <text x="62" y="293" text-anchor="end" font-size="13">-2.2</text><line x1="402.99999999999994" y1="368" x2="402.99999999999994" y2="373" stroke="#344054"/>
      <text x="402.99999999999994" y="392" text-anchor="middle" font-size="13">9.6</text>
      <line x1="67" y1="210" x2="72" y2="210" stroke="#344054"/>
      <text x="62" y="214" text-anchor="end" font-size="13">-0.2</text><line x1="568.5" y1="368" x2="568.5" y2="373" stroke="#344054"/>
      <text x="568.5" y="392" text-anchor="middle" font-size="13">12.5</text>
      <line x1="67" y1="131" x2="72" y2="131" stroke="#344054"/>
      <text x="62" y="135" text-anchor="end" font-size="13">1.8</text><line x1="734" y1="368" x2="734" y2="373" stroke="#344054"/>
      <text x="734" y="392" text-anchor="middle" font-size="13">15.4</text>
      <line x1="67" y1="52" x2="72" y2="52" stroke="#344054"/>
      <text x="62" y="56" text-anchor="end" font-size="13">3.8</text><polyline points="72,201.87622396252976 734,201.87622396252976" fill="none" stroke="#d64545" stroke-width="2" stroke-dasharray=""/><circle cx="143.99518977358355" cy="258.1436440200979" r="4" fill="#2364aa" opacity="0.82"/><circle cx="287.7498798882922" cy="283.64976606492496" r="4" fill="#2364aa" opacity="0.82"/><circle cx="673.4763993948638" cy="192.44833186218258" r="4" fill="#2364aa" opacity="0.82"/><circle cx="296.9151025380779" cy="225.16975843747198" r="4" fill="#2364aa" opacity="0.82"/><circle cx="641.7713592205515" cy="341.88557468248916" r="4" fill="#2364aa" opacity="0.82"/><circle cx="687.6589612305329" cy="87.1596369062799" r="4" fill="#2364aa" opacity="0.82"/><circle cx="465.85123220464845" cy="209.24319829971" r="4" fill="#2364aa" opacity="0.82"/><circle cx="396.39472766486875" cy="251.01158224184312" r="4" fill="#2364aa" opacity="0.82"/><circle cx="351.18214814421276" cy="264.9853434610936" r="4" fill="#2364aa" opacity="0.82"/><circle cx="571.9879346171167" cy="179.60427905913622" r="4" fill="#2364aa" opacity="0.82"/><circle cx="363.9226423721639" cy="252.0357821166034" r="4" fill="#2364aa" opacity="0.82"/><circle cx="463.0870116713289" cy="185.57772169246627" r="4" fill="#2364aa" opacity="0.82"/><circle cx="252.69716955448584" cy="247.7844325346682" r="4" fill="#2364aa" opacity="0.82"/><circle cx="192.98748722264833" cy="241.84235042318068" r="4" fill="#2364aa" opacity="0.82"/><circle cx="422.2071869579905" cy="111.37039962024448" r="4" fill="#2364aa" opacity="0.82"/><circle cx="303.1195110638249" cy="207.40519177722825" r="4" fill="#2364aa" opacity="0.82"/><circle cx="511.90148969996676" cy="178.79752323300409" r="4" fill="#2364aa" opacity="0.82"/><circle cx="319.3806183977787" cy="197.11205696761567" r="4" fill="#2364aa" opacity="0.82"/><circle cx="314.6829217715409" cy="137.46274537969032" r="4" fill="#2364aa" opacity="0.82"/><circle cx="307.22122960094197" cy="184.81802446923652" r="4" fill="#2364aa" opacity="0.82"/><circle cx="211.88385219039964" cy="232.62195943997475" r="4" fill="#2364aa" opacity="0.82"/><circle cx="240.67928272708926" cy="244.81566845145642" r="4" fill="#2364aa" opacity="0.82"/><circle cx="186.77930497382278" cy="195.39151306265555" r="4" fill="#2364aa" opacity="0.82"/><circle cx="231.03413271286593" cy="75.9165493670908" r="4" fill="#2364aa" opacity="0.82"/><circle cx="72" cy="131.4660852260147" r="4" fill="#2364aa" opacity="0.82"/><circle cx="512.9687150170284" cy="263.49641886666535" r="4" fill="#2364aa" opacity="0.82"/><circle cx="439.06121761407184" cy="257.38140648108055" r="4" fill="#2364aa" opacity="0.82"/><circle cx="510.64523072646716" cy="275.8273657242016" r="4" fill="#2364aa" opacity="0.82"/><circle cx="451.2792988753199" cy="220.02711547500923" r="4" fill="#2364aa" opacity="0.82"/><circle cx="130.45158087014462" cy="134.34720172084678" r="4" fill="#2364aa" opacity="0.82"/><circle cx="512.6916359573831" cy="165.01540154849243" r="4" fill="#2364aa" opacity="0.82"/><circle cx="562.7377670581214" cy="200.69140290475798" r="4" fill="#2364aa" opacity="0.82"/><circle cx="395.75497988963747" cy="263.24197274551824" r="4" fill="#2364aa" opacity="0.82"/><circle cx="328.17259232673507" cy="201.44576916753408" r="4" fill="#2364aa" opacity="0.82"/><circle cx="328.97196255741045" cy="168.02177663490292" r="4" fill="#2364aa" opacity="0.82"/><circle cx="484.61137138299574" cy="217.93554595896865" r="4" fill="#2364aa" opacity="0.82"/><circle cx="249.7200918019129" cy="235.14677756481709" r="4" fill="#2364aa" opacity="0.82"/><circle cx="514.295614798538" cy="216.57465939039153" r="4" fill="#2364aa" opacity="0.82"/><circle cx="433.7863157194203" cy="197.3736768833193" r="4" fill="#2364aa" opacity="0.82"/><circle cx="422.4343988009013" cy="175.72681220363836" r="4" fill="#2364aa" opacity="0.82"/><circle cx="304.4875808103197" cy="225.60944628022756" r="4" fill="#2364aa" opacity="0.82"/><circle cx="409.03929159828107" cy="147.7750021283538" r="4" fill="#2364aa" opacity="0.82"/><circle cx="245.11076569558395" cy="115.44673353049401" r="4" fill="#2364aa" opacity="0.82"/><circle cx="287.3833254563351" cy="171.1350710047472" r="4" fill="#2364aa" opacity="0.82"/><circle cx="456.2454695680542" cy="298.61061911587615" r="4" fill="#2364aa" opacity="0.82"/><circle cx="734" cy="114.96217604262654" r="4" fill="#2364aa" opacity="0.82"/><circle cx="366.2892542959944" cy="159.31241698607008" r="4" fill="#2364aa" opacity="0.82"/><circle cx="604.1929906662037" cy="327.4706239251264" r="4" fill="#2364aa" opacity="0.82"/><circle cx="176.91034662678248" cy="198.3063113157184" r="4" fill="#2364aa" opacity="0.82"/><circle cx="413.0401667208507" cy="279.1313472135289" r="4" fill="#2364aa" opacity="0.82"/><circle cx="576.1681111001528" cy="270.1572105243073" r="4" fill="#2364aa" opacity="0.82"/><circle cx="433.39076498829263" cy="148.045615559828" r="4" fill="#2364aa" opacity="0.82"/><circle cx="420.225033082701" cy="180.2525142536916" r="4" fill="#2364aa" opacity="0.82"/><circle cx="569.7143790830306" cy="94.78037776296594" r="4" fill="#2364aa" opacity="0.82"/><circle cx="431.92354261866575" cy="73.79310344827593" r="4" fill="#2364aa" opacity="0.82"/><circle cx="592.0296854175791" cy="251.1867884935775" r="4" fill="#2364aa" opacity="0.82"/><circle cx="519.2145330561582" cy="155.3610105214676" r="4" fill="#2364aa" opacity="0.82"/><circle cx="656.8721070796315" cy="179.88403499511324" r="4" fill="#2364aa" opacity="0.82"/><circle cx="252.31560774831345" cy="168.64710910111316" r="4" fill="#2364aa" opacity="0.82"/><circle cx="118.6182117045147" cy="175.5660948130409" r="4" fill="#2364aa" opacity="0.82"/><circle cx="420.487183954691" cy="109.70366459482597" r="4" fill="#2364aa" opacity="0.82"/><circle cx="322.07434503282275" cy="271.814154974389" r="4" fill="#2364aa" opacity="0.82"/><circle cx="191.23135794821454" cy="244.13400812895154" r="4" fill="#2364aa" opacity="0.82"/><circle cx="424.17051685384877" cy="253.46094034266522" r="4" fill="#2364aa" opacity="0.82"/><circle cx="406.04466351675586" cy="157.2361126356327" r="4" fill="#2364aa" opacity="0.82"/><circle cx="335.99242608812045" cy="123.76239309888842" r="4" fill="#2364aa" opacity="0.82"/><circle cx="473.0507101815192" cy="110.74088062772103" r="4" fill="#2364aa" opacity="0.82"/><circle cx="476.7097594726864" cy="121.70855719559609" r="4" fill="#2364aa" opacity="0.82"/><circle cx="424.0509557928851" cy="94.64933242655292" r="4" fill="#2364aa" opacity="0.82"/><circle cx="406.4141057077743" cy="115.94918193498552" r="4" fill="#2364aa" opacity="0.82"/><circle cx="338.2609966145551" cy="278.88689631606434" r="4" fill="#2364aa" opacity="0.82"/><circle cx="98.29774222800961" cy="147.6987239319921" r="4" fill="#2364aa" opacity="0.82"/><circle cx="286.1642303845168" cy="241.11097621359198" r="4" fill="#2364aa" opacity="0.82"/><circle cx="497.0487922656996" cy="299.9501169227743" r="4" fill="#2364aa" opacity="0.82"/><circle cx="596.3889034327345" cy="182.64092679032473" r="4" fill="#2364aa" opacity="0.82"/><circle cx="201.8759966106459" cy="346.2068965517241" r="4" fill="#2364aa" opacity="0.82"/><circle cx="327.6313116173458" cy="242.18049420787867" r="4" fill="#2364aa" opacity="0.82"/><circle cx="345.3160153798537" cy="275.47383166405154" r="4" fill="#2364aa" opacity="0.82"/><circle cx="464.1800609196113" cy="229.99660188216663" r="4" fill="#2364aa" opacity="0.82"/><circle cx="663.5703169708843" cy="257.38719747893634" r="4" fill="#2364aa" opacity="0.82"/>
  </svg>