<svg xmlns="http://www.w3.org/2000/svg" width="760" height="430" viewBox="0 0 760 430">
  <rect width="100%" height="100%" fill="#fff"/>
  <text x="380" y="30" text-anchor="middle" font-size="22" font-weight="700">独立性の確認</text>
  <line x1="72" y1="368" x2="734" y2="368" stroke="#344054"/>
  <line x1="72" y1="52" x2="72" y2="368" stroke="#344054"/>
  <text x="380" y="414" text-anchor="middle" font-size="18">データの順番</text>
  <text transform="translate(22 215) rotate(-90)" text-anchor="middle" font-size="18">残差</text>
  <line x1="72" y1="368" x2="72" y2="373" stroke="#344054"/>
      <text x="72" y="392" text-anchor="middle" font-size="13">1</text>
      <line x1="67" y1="368" x2="72" y2="368" stroke="#344054"/>
      <text x="62" y="372" text-anchor="end" font-size="13">-4.2</text><line x1="237.5" y1="368" x2="237.5" y2="373" stroke="#344054"/>
      <text x="237.5" y="392" text-anchor="middle" font-size="13">21</text>
      <line x1="67" y1="289" x2="72" y2="289" stroke="#344054"/>
      <text x="62" y="293" text-anchor="end" font-size="13">-2.2</text><line x1="403" y1="368" x2="403" y2="373" stroke="#344054"/>
      <text x="403" y="392" text-anchor="middle" font-size="13">41</text>
      <line x1="67" y1="210" x2="72" y2="210" stroke="#344054"/>
      <text x="62" y="214" text-anchor="end" font-size="13">-0.2</text><line x1="568.5" y1="368" x2="568.5" y2="373" stroke="#344054"/>
      <text x="568.5" y="392" text-anchor="middle" font-size="13">60</text>
      <line x1="67" y1="131" x2="72" y2="131" stroke="#344054"/>
      <text x="62" y="135" text-anchor="end" font-size="13">1.8</text><line x1="734" y1="368" x2="734" y2="373" stroke="#344054"/>
      <text x="734" y="392" text-anchor="middle" font-size="13">80</text>
      <line x1="67" y1="52" x2="72" y2="52" stroke="#344054"/>
      <text x="62" y="56" text-anchor="end" font-size="13">3.8</text><polyline points="72,258.1436440200979 80.37974683544304,283.64976606492496 88.75949367088607,192.44833186218258 97.13924050632912,225.16975843747198 105.51898734177215,341.88557468248916 113.89873417721519,87.1596369062799 122.27848101265823,209.24319829971 130.65822784810126,251.01158224184312 139.0379746835443,264.9853434610936 147.41772151898732,179.60427905913622 155.79746835443038,252.0357821166034 164.1772151898734,185.57772169246627 172.55696202531647,247.7844325346682 180.9367088607595,241.84235042318068 189.31645569620252,111.37039962024448 197.69620253164558,207.40519177722825 206.0759493670886,178.79752323300409 214.45569620253164,197.11205696761567 222.83544303797467,137.46274537969032 231.21518987341773,184.81802446923652 239.59493670886076,232.62195943997475 247.9746835443038,244.81566845145642 256.3544303797468,195.39151306265555 264.7341772151899,75.9165493670908 273.11392405063293,131.4660852260147 281.49367088607596,263.49641886666535 289.873417721519,257.38140648108055 298.253164556962,275.8273657242016 306.63291139240505,220.02711547500923 315.0126582278481,134.34720172084678 323.39240506329116,165.01540154849243 331.77215189873414,200.69140290475798 340.1518987341772,263.24197274551824 348.53164556962025,201.44576916753408 356.9113924050633,168.02177663490292 365.2911392405063,217.93554595896865 373.67088607594934,235.14677756481709 382.0506329113924,216.57465939039153 390.43037974683546,197.3736768833193 398.8101265822785,175.72681220363836 407.1898734177215,225.60944628022756 415.56962025316454,147.7750021283538 423.9493670886076,115.44673353049401 432.32911392405066,171.1350710047472 440.70886075949363,298.61061911587615 449.0886075949367,114.96217604262654 457.46835443037975,159.31241698607008 465.8481012658228,327.4706239251264 474.22784810126586,198.3063113157184 482.60759493670884,279.1313472135289 490.9873417721519,270.1572105243073 499.36708860759495,148.045615559828 507.7468354430379,180.2525142536916 516.126582278481,94.78037776296594 524.506329113924,73.79310344827593 532.8860759493671,251.1867884935775 541.2658227848101,155.3610105214676 549.6455696202531,179.88403499511324 558.0253164556962,168.64710910111316 566.4050632911392,175.5660948130409 574.7848101265823,109.70366459482597 583.1645569620252,271.814154974389 591.5443037974683,244.13400812895154 599.9240506329114,253.46094034266522 608.3037974683544,157.2361126356327 616.6835443037975,123.76239309888842 625.0632911392405,110.74088062772103 633.4430379746835,121.70855719559609 641.8227848101266,94.64933242655292 650.2025316455696,115.94918193498552 658.5822784810126,278.88689631606434 666.9620253164557,147.6987239319921 675.3417721518987,241.11097621359198 683.7215189873418,299.9501169227743 692.1012658227849,182.64092679032473 700.4810126582278,346.2068965517241 708.8607594936709,242.18049420787867 717.2405063291139,275.47383166405154 725.620253164557,229.99660188216663 734,257.38719747893634" fill="none" stroke="#8aa7c7" stroke-width="1.5"/><polyline points="72,201.87622396252976 734,201.87622396252976" fill="none" stroke="#d64545" stroke-width="2" stroke-dasharray=""/><circle cx="72" cy="258.1436440200979" r="4" fill="#2364aa" opacity="0.82"/><circle cx="80.37974683544304" cy="283.64976606492496" r="4" fill="#2364aa" opacity="0.82"/><circle cx="88.75949367088607" cy="192.44833186218258" r="4" fill="#2364aa" opacity="0.82"/><circle cx="97.13924050632912" cy="225.16975843747198" r="4" fill="#2364aa" opacity="0.82"/><circle cx="105.51898734177215" cy="341.88557468248916" r="4" fill="#2364aa" opacity="0.82"/><circle cx="113.89873417721519" cy="87.1596369062799" r="4" fill="#2364aa" opacity="0.82"/><circle cx="122.27848101265823" cy="209.24319829971" r="4" fill="#2364aa" opacity="0.82"/><circle cx="130.65822784810126" cy="251.01158224184312" r="4" fill="#2364aa" opacity="0.82"/><circle cx="139.0379746835443" cy="264.9853434610936" r="4" fill="#2364aa" opacity="0.82"/><circle cx="147.41772151898732" cy="179.60427905913622" r="4" fill="#2364aa" opacity="0.82"/><circle cx="155.79746835443038" cy="252.0357821166034" r="4" fill="#2364aa" opacity="0.82"/><circle cx="164.1772151898734" cy="185.57772169246627" r="4" fill="#2364aa" opacity="0.82"/><circle cx="172.55696202531647" cy="247.7844325346682" r="4" fill="#2364aa" opacity="0.82"/><circle cx="180.9367088607595" cy="241.84235042318068" r="4" fill="#2364aa" opacity="0.82"/><circle cx="189.31645569620252" cy="111.37039962024448" r="4" fill="#2364aa" opacity="0.82"/><circle cx="197.69620253164558" cy="207.40519177722825" r="4" fill="#2364aa" opacity="0.82"/><circle cx="206.0759493670886" cy="178.79752323300409" r="4" fill="#2364aa" opacity="0.82"/><circle cx="214.45569620253164" cy="197.11205696761567" r="4" fill="#2364aa" opacity="0.82"/><circle cx="222.83544303797467" cy="137.46274537969032" r="4" fill="#2364aa" opacity="0.82"/><circle cx="231.21518987341773" cy="184.81802446923652" r="4" fill="#2364aa" opacity="0.82"/><circle cx="239.59493670886076" cy="232.62195943997475" r="4" fill="#2364aa" opacity="0.82"/><circle cx="247.9746835443038" cy="244.81566845145642" r="4" fill="#2364aa" opacity="0.82"/><circle cx="256.3544303797468" cy="195.39151306265555" r="4" fill="#2364aa" opacity="0.82"/><circle cx="264.7341772151899" cy="75.9165493670908" r="4" fill="#2364aa" opacity="0.82"/><circle cx="273.11392405063293" cy="131.4660852260147" r="4" fill="#2364aa" opacity="0.82"/><circle cx="281.49367088607596" cy="263.49641886666535" r="4" fill="#2364aa" opacity="0.82"/><circle cx="289.873417721519" cy="257.38140648108055" r="4" fill="#2364aa" opacity="0.82"/><circle cx="298.253164556962" cy="275.8273657242016" r="4" fill="#2364aa" opacity="0.82"/><circle cx="306.63291139240505" cy="220.02711547500923" r="4" fill="#2364aa" opacity="0.82"/><circle cx="315.0126582278481" cy="134.34720172084678" r="4" fill="#2364aa" opacity="0.82"/><circle cx="323.39240506329116" cy="165.01540154849243" r="4" fill="#2364aa" opacity="0.82"/><circle cx="331.77215189873414" cy="200.69140290475798" r="4" fill="#2364aa" opacity="0.82"/><circle cx="340.1518987341772" cy="263.24197274551824" r="4" fill="#2364aa" opacity="0.82"/><circle cx="348.53164556962025" cy="201.44576916753408" r="4" fill="#2364aa" opacity="0.82"/><circle cx="356.9113924050633" cy="168.02177663490292" r="4" fill="#2364aa" opacity="0.82"/><circle cx="365.2911392405063" cy="217.93554595896865" r="4" fill="#2364aa" opacity="0.82"/><circle cx="373.67088607594934" cy="235.14677756481709" r="4" fill="#2364aa" opacity="0.82"/><circle cx="382.0506329113924" cy="216.57465939039153" r="4" fill="#2364aa" opacity="0.82"/><circle cx="390.43037974683546" cy="197.3736768833193" r="4" fill="#2364aa" opacity="0.82"/><circle cx="398.8101265822785" cy="175.72681220363836" r="4" fill="#2364aa" opacity="0.82"/><circle cx="407.1898734177215" cy="225.60944628022756" r="4" fill="#2364aa" opacity="0.82"/><circle cx="415.56962025316454" cy="147.7750021283538" r="4" fill="#2364aa" opacity="0.82"/><circle cx="423.9493670886076" cy="115.44673353049401" r="4" fill="#2364aa" opacity="0.82"/><circle cx="432.32911392405066" cy="171.1350710047472" r="4" fill="#2364aa" opacity="0.82"/><circle cx="440.70886075949363" cy="298.61061911587615" r="4" fill="#2364aa" opacity="0.82"/><circle cx="449.0886075949367" cy="114.96217604262654" r="4" fill="#2364aa" opacity="0.82"/><circle cx="457.46835443037975" cy="159.31241698607008" r="4" fill="#2364aa" opacity="0.82"/><circle cx="465.8481012658228" cy="327.4706239251264" r="4" fill="#2364aa" opacity="0.82"/><circle cx="474.22784810126586" cy="198.3063113157184" r="4" fill="#2364aa" opacity="0.82"/><circle cx="482.60759493670884" cy="279.1313472135289" r="4" fill="#2364aa" opacity="0.82"/><circle cx="490.9873417721519" cy="270.1572105243073" r="4" fill="#2364aa" opacity="0.82"/><circle cx="499.36708860759495" cy="148.045615559828" r="4" fill="#2364aa" opacity="0.82"/><circle cx="507.7468354430379" cy="180.2525142536916" r="4" fill="#2364aa" opacity="0.82"/><circle cx="516.126582278481" cy="94.78037776296594" r="4" fill="#2364aa" opacity="0.82"/><circle cx="524.506329113924" cy="73.79310344827593" r="4" fill="#2364aa" opacity="0.82"/><circle cx="532.8860759493671" cy="251.1867884935775" r="4" fill="#2364aa" opacity="0.82"/><circle cx="541.2658227848101" cy="155.3610105214676" r="4" fill="#2364aa" opacity="0.82"/><circle cx="549.6455696202531" cy="179.88403499511324" r="4" fill="#2364aa" opacity="0.82"/><circle cx="558.0253164556962" cy="168.64710910111316" r="4" fill="#2364aa" opacity="0.82"/><circle cx="566.4050632911392" cy="175.5660948130409" r="4" fill="#2364aa" opacity="0.82"/><circle cx="574.7848101265823" cy="109.70366459482597" r="4" fill="#2364aa" opacity="0.82"/><circle cx="583.1645569620252" cy="271.814154974389" r="4" fill="#2364aa" opacity="0.82"/><circle cx="591.5443037974683" cy="244.13400812895154" r="4" fill="#2364aa" opacity="0.82"/><circle cx="599.9240506329114" cy="253.46094034266522" r="4" fill="#2364aa" opacity="0.82"/><circle cx="608.3037974683544" cy="157.2361126356327" r="4" fill="#2364aa" opacity="0.82"/><circle cx="616.6835443037975" cy="123.76239309888842" r="4" fill="#2364aa" opacity="0.82"/><circle cx="625.0632911392405" cy="110.74088062772103" r="4" fill="#2364aa" opacity="0.82"/><circle cx="633.4430379746835" cy="121.70855719559609" r="4" fill="#2364aa" opacity="0.82"/><circle cx="641.8227848101266" cy="94.64933242655292" r="4" fill="#2364aa" opacity="0.82"/><circle cx="650.2025316455696" cy="115.94918193498552" r="4" fill="#2364aa" opacity="0.82"/><circle cx="658.5822784810126" cy="278.88689631606434" r="4" fill="#2364aa" opacity="0.82"/><circle cx="666.9620253164557" cy="147.6987239319921" r="4" fill="#2364aa" opacity="0.82"/><circle cx="675.3417721518987" cy="241.11097621359198" r="4" fill="#2364aa" opacity="0.82"/><circle cx="683.7215189873418" cy="299.9501169227743" r="4" fill="#2364aa" opacity="0.82"/><circle cx="692.1012658227849" cy="182.64092679032473" r="4" fill="#2364aa" opacity="0.82"/><circle cx="700.4810126582278" cy="346.2068965517241" r="4" fill="#2364aa" opacity="0.82"/><circle cx="708.8607594936709" cy="242.18049420787867" r="4" fill="#2364aa" opacity="0.82"/><circle cx="717.2405063291139" cy="275.47383166405154" r="4" fill="#2364aa" opacity="0.82"/><circle cx="725.620253164557" cy="229.99660188216663" r="4" fill="#2364aa" opacity="0.82"/><circle cx="734" cy="257.38719747893634" r="4" fill="#2364aa" opacity="0.82"/>
  </svg>