<svg xmlns="http://www.w3.org/2000/svg" width="760" height="430" viewBox="0 0 760 430">
  <rect width="100%" height="100%" fill="#fff"/>
  <text x="380" y="30" text-anchor="middle" font-size="22" font-weight="700">Q-Qプロット</text>
  <line x1="72" y1="368" x2="734" y2="368" stroke="#344054"/>
  <line x1="72" y1="52" x2="72" y2="368" stroke="#344054"/>
  <text x="380" y="414" text-anchor="middle" font-size="18">理論上の正規分布の分位</text>
  <text transform="translate(22 215) rotate(-90)" text-anchor="middle" font-size="18">残差の分位</text>
  <line x1="72" y1="368" x2="72" y2="373" stroke="#344054"/>
      <text x="72" y="392" text-anchor="middle" font-size="13">-2.5</text>
      <line x1="67" y1="368" x2="72" y2="368" stroke="#344054"/>
      <text x="62" y="372" text-anchor="end" font-size="13">-4.2</text><line x1="237.5" y1="368" x2="237.5" y2="373" stroke="#344054"/>
      <text x="237.5" y="392" text-anchor="middle" font-size="13">-1.2</text>
      <line x1="67" y1="289" x2="72" y2="289" stroke="#344054"/>
      <text x="62" y="293" text-anchor="end" font-size="13">-2.2</text><line x1="403" y1="368" x2="403" y2="373" stroke="#344054"/>
      <text x="403" y="392" text-anchor="middle" font-size="13">0.0</text>
      <line x1="67" y1="210" x2="72" y2="210" stroke="#344054"/>
      <text x="62" y="214" text-anchor="end" font-size="13">-0.2</text><line x1="568.5" y1="368" x2="568.5" y2="373" stroke="#344054"/>
      <text x="568.5" y="392" text-anchor="middle" font-size="13">1.2</text>
      <line x1="67" y1="131" x2="72" y2="131" stroke="#344054"/>
      <text x="62" y="135" text-anchor="end" font-size="13">1.8</text><line x1="734" y1="368" x2="734" y2="373" stroke="#344054"/>
      <text x="734" y="392" text-anchor="middle" font-size="13">2.5</text>
      <line x1="67" y1="52" x2="72" y2="52" stroke="#344054"/>
      <text x="62" y="56" text-anchor="end" font-size="13">3.8</text><polyline points="72,362.3711518650441 734,41.38129606001485" fill="none" stroke="#d64545" stroke-width="2" stroke-dasharray=""/><circle cx="72" cy="346.2068965517241" r="4" fill="#2364aa" opacity="0.82"/><circle cx="127.31810978748771" cy="341.88557468248916" r="4" fill="#2364aa" opacity="0.82"/><circle cx="156.1477376857258" cy="327.4706239251264" r="4" fill="#2364aa" opacity="0.82"/><circle cx="176.55561912923116" cy="299.9501169227743" r="4" fill="#2364aa" opacity="0.82"/><circle cx="192.68077502473147" cy="298.61061911587615" r="4" fill="#2364aa" opacity="0.82"/><circle cx="206.18345325951643" cy="283.64976606492496" r="4" fill="#2364aa" opacity="0.82"/><circle cx="217.9053640930293" cy="279.1313472135289" r="4" fill="#2364aa" opacity="0.82"/><circle cx="228.33504823213207" cy="278.88689631606434" r="4" fill="#2364aa" opacity="0.82"/><circle cx="237.78256811210315" cy="275.8273657242016" r="4" fill="#2364aa" opacity="0.82"/><circle cx="246.45768265907068" cy="275.47383166405154" r="4" fill="#2364aa" opacity="0.82"/><circle cx="254.50927980347515" cy="271.814154974389" r="4" fill="#2364aa" opacity="0.82"/><circle cx="262.047087328082" cy="270.1572105243073" r="4" fill="#2364aa" opacity="0.82"/><circle cx="269.15445678398885" cy="264.9853434610936" r="4" fill="#2364aa" opacity="0.82"/><circle cx="275.8963028759345" cy="263.49641886666535" r="4" fill="#2364aa" opacity="0.82"/><circle cx="282.32425272597516" cy="263.24197274551824" r="4" fill="#2364aa" opacity="0.82"/><circle cx="288.48010810985136" cy="258.1436440200979" r="4" fill="#2364aa" opacity="0.82"/><circle cx="294.39824538702965" cy="257.38719747893634" r="4" fill="#2364aa" opacity="0.82"/><circle cx="300.10732308596846" cy="257.38140648108055" r="4" fill="#2364aa" opacity="0.82"/><circle cx="305.63152472544414" cy="253.46094034266522" r="4" fill="#2364aa" opacity="0.82"/><circle cx="310.9914815319915" cy="252.0357821166034" r="4" fill="#2364aa" opacity="0.82"/><circle cx="316.2049696707662" cy="251.1867884935775" r="4" fill="#2364aa" opacity="0.82"/><circle cx="321.2874454519882" cy="251.01158224184312" r="4" fill="#2364aa" opacity="0.82"/><circle cx="326.2524620395599" cy="247.7844325346682" r="4" fill="#2364aa" opacity="0.82"/><circle cx="331.1119981174587" cy="244.81566845145642" r="4" fill="#2364aa" opacity="0.82"/><circle cx="335.87672021057205" cy="244.13400812895154" r="4" fill="#2364aa" opacity="0.82"/><circle cx="340.55619437107583" cy="242.18049420787867" r="4" fill="#2364aa" opacity="0.82"/><circle cx="345.1590587780596" cy="241.84235042318068" r="4" fill="#2364aa" opacity="0.82"/><circle cx="349.6931658552815" cy="241.11097621359198" r="4" fill="#2364aa" opacity="0.82"/><circle cx="354.1657004013096" cy="235.14677756481709" r="4" fill="#2364aa" opacity="0.82"/><circle cx="358.58327869233904" cy="232.62195943997475" r="4" fill="#2364aa" opacity="0.82"/><circle cx="362.95203238965985" cy="229.99660188216663" r="4" fill="#2364aa" opacity="0.82"/><circle cx="367.277680244797" cy="225.60944628022756" r="4" fill="#2364aa" opacity="0.82"/><circle cx="371.5655899655564" cy="225.16975843747198" r="4" fill="#2364aa" opacity="0.82"/><circle cx="375.82083212953484" cy="220.02711547500923" r="4" fill="#2364aa" opacity="0.82"/><circle cx="380.04822766844813" cy="217.93554595896865" r="4" fill="#2364aa" opacity="0.82"/><circle cx="384.25239016857756" cy="216.57465939039153" r="4" fill="#2364aa" opacity="0.82"/><circle cx="388.43776401932286" cy="209.24319829971" r="4" fill="#2364aa" opacity="0.82"/><circle cx="392.6086592784613" cy="207.40519177722825" r="4" fill="#2364aa" opacity="0.82"/><circle cx="396.7692839984794" cy="201.44576916753408" r="4" fill="#2364aa" opacity="0.82"/><circle cx="400.92377466543155" cy="200.69140290475798" r="4" fill="#2364aa" opacity="0.82"/><circle cx="405.07622533456816" cy="198.3063113157184" r="4" fill="#2364aa" opacity="0.82"/><circle cx="409.2307160015204" cy="197.3736768833193" r="4" fill="#2364aa" opacity="0.82"/><circle cx="413.3913407215385" cy="197.11205696761567" r="4" fill="#2364aa" opacity="0.82"/><circle cx="417.5622359806769" cy="195.39151306265555" r="4" fill="#2364aa" opacity="0.82"/><circle cx="421.7476098314222" cy="192.44833186218258" r="4" fill="#2364aa" opacity="0.82"/><circle cx="425.95177233155164" cy="185.57772169246627" r="4" fill="#2364aa" opacity="0.82"/><circle cx="430.17916787046494" cy="184.81802446923652" r="4" fill="#2364aa" opacity="0.82"/><circle cx="434.43441003444343" cy="182.64092679032473" r="4" fill="#2364aa" opacity="0.82"/><circle cx="438.7223197552027" cy="180.2525142536916" r="4" fill="#2364aa" opacity="0.82"/><circle cx="443.04796761033987" cy="179.88403499511324" r="4" fill="#2364aa" opacity="0.82"/><circle cx="447.41672130766074" cy="179.60427905913622" r="4" fill="#2364aa" opacity="0.82"/><circle cx="451.8342995986902" cy="178.79752323300409" r="4" fill="#2364aa" opacity="0.82"/><circle cx="456.30683414471827" cy="175.72681220363836" r="4" fill="#2364aa" opacity="0.82"/><circle cx="460.84094122194017" cy="175.5660948130409" r="4" fill="#2364aa" opacity="0.82"/><circle cx="465.4438056289239" cy="171.1350710047472" r="4" fill="#2364aa" opacity="0.82"/><circle cx="470.1232797894277" cy="168.64710910111316" r="4" fill="#2364aa" opacity="0.82"/><circle cx="474.8880018825411" cy="168.02177663490292" r="4" fill="#2364aa" opacity="0.82"/><circle cx="479.74753796043984" cy="165.01540154849243" r="4" fill="#2364aa" opacity="0.82"/><circle cx="484.7125545480115" cy="159.31241698607008" r="4" fill="#2364aa" opacity="0.82"/><circle cx="489.7950303292336" cy="157.2361126356327" r="4" fill="#2364aa" opacity="0.82"/><circle cx="495.0085184680083" cy="155.3610105214676" r="4" fill="#2364aa" opacity="0.82"/><circle cx="500.3684752745557" cy="148.045615559828" r="4" fill="#2364aa" opacity="0.82"/><circle cx="505.8926769140313" cy="147.7750021283538" r="4" fill="#2364aa" opacity="0.82"/><circle cx="511.6017546129701" cy="147.6987239319921" r="4" fill="#2364aa" opacity="0.82"/><circle cx="517.5198918901484" cy="137.46274537969032" r="4" fill="#2364aa" opacity="0.82"/><circle cx="523.6757472740246" cy="134.34720172084678" r="4" fill="#2364aa" opacity="0.82"/><circle cx="530.1036971240652" cy="131.4660852260147" r="4" fill="#2364aa" opacity="0.82"/><circle cx="536.8455432160109" cy="123.76239309888842" r="4" fill="#2364aa" opacity="0.82"/><circle cx="543.9529126719178" cy="121.70855719559609" r="4" fill="#2364aa" opacity="0.82"/><circle cx="551.4907201965245" cy="115.94918193498552" r="4" fill="#2364aa" opacity="0.82"/><circle cx="559.542317340929" cy="115.44673353049401" r="4" fill="#2364aa" opacity="0.82"/><circle cx="568.2174318878967" cy="114.96217604262654" r="4" fill="#2364aa" opacity="0.82"/><circle cx="577.6649517678677" cy="111.37039962024448" r="4" fill="#2364aa" opacity="0.82"/><circle cx="588.0946359069707" cy="110.74088062772103" r="4" fill="#2364aa" opacity="0.82"/><circle cx="599.8165467404833" cy="109.70366459482597" r="4" fill="#2364aa" opacity="0.82"/><circle cx="613.3192249752683" cy="94.78037776296594" r="4" fill="#2364aa" opacity="0.82"/><circle cx="629.4443808707584" cy="94.64933242655292" r="4" fill="#2364aa" opacity="0.82"/><circle cx="649.852262314274" cy="87.1596369062799" r="4" fill="#2364aa" opacity="0.82"/><circle cx="678.6818902125119" cy="75.9165493670908" r="4" fill="#2364aa" opacity="0.82"/><circle cx="734" cy="73.79310344827593" r="4" fill="#2364aa" opacity="0.82"/>
  </svg>