<svg xmlns="http://www.w3.org/2000/svg" width="760" height="430" viewBox="0 0 760 430">
  <rect width="100%" height="100%" fill="#fff"/>
  <text x="380" y="30" text-anchor="middle" font-size="22" font-weight="700">残差の分布</text>
  <line x1="70" y1="368" x2="736" y2="368" stroke="#344054"/>
  <line x1="70" y1="52" x2="70" y2="368" stroke="#344054"/>
  <text x="380" y="414" text-anchor="middle" font-size="18">残差</text>
  <text transform="translate(22 215) rotate(-90)" text-anchor="middle" font-size="18">度数</text>
  <line x1="70" y1="368" x2="70" y2="373" stroke="#344054"/>
      <text x="70" y="392" text-anchor="middle" font-size="13">-3.7</text><line x1="236.5" y1="368" x2="236.5" y2="373" stroke="#344054"/>
      <text x="236.5" y="392" text-anchor="middle" font-size="13">-1.9</text><line x1="403" y1="368" x2="403" y2="373" stroke="#344054"/>
      <text x="403" y="392" text-anchor="middle" font-size="13">-0.2</text><line x1="569.5" y1="368" x2="569.5" y2="373" stroke="#344054"/>
      <text x="569.5" y="392" text-anchor="middle" font-size="13">1.5</text><line x1="736" y1="368" x2="736" y2="373" stroke="#344054"/>
      <text x="736" y="392" text-anchor="middle" font-size="13">3.2</text><line x1="65" y1="368" x2="70" y2="368" stroke="#344054"/>
      <text x="60" y="372" text-anchor="end" font-size="13">0</text><line x1="65" y1="210" x2="70" y2="210" stroke="#344054"/>
      <text x="60" y="214" text-anchor="end" font-size="13">7</text><line x1="65" y1="52" x2="70" y2="52" stroke="#344054"/>
      <text x="60" y="56" text-anchor="end" font-size="13">13</text><rect x="70" y="295.0769230769231" width="54.5" height="72.9230769230769" fill="#9aa6b2"/><rect x="125.5" y="368" width="54.5" height="0" fill="#9aa6b2"/><rect x="181" y="246.46153846153845" width="54.5" height="121.53846153846155" fill="#9aa6b2"/><rect x="236.5" y="124.9230769230769" width="54.5" height="243.0769230769231" fill="#9aa6b2"/><rect x="292" y="100.61538461538464" width="54.5" height="267.38461538461536" fill="#9aa6b2"/><rect x="347.5" y="197.84615384615387" width="54.5" height="170.15384615384613" fill="#9aa6b2"/><rect x="403" y="149.23076923076923" width="54.5" height="218.76923076923077" fill="#9aa6b2"/><rect x="458.5" y="52" width="54.5" height="316" fill="#9aa6b2"/><rect x="514" y="222.15384615384613" width="54.5" height="145.84615384615387" fill="#9aa6b2"/><rect x="569.5" y="246.46153846153845" width="54.5" height="121.53846153846155" fill="#9aa6b2"/><rect x="625" y="222.15384615384613" width="54.5" height="145.84615384615387" fill="#9aa6b2"/><rect x="680.5" y="246.46153846153845" width="54.5" height="121.53846153846155" fill="#9aa6b2"/>
  </svg>