<svg xmlns="http://www.w3.org/2000/svg" width="800" height="430" viewBox="0 0 800 430">
  <rect width="100%" height="100%" fill="#fff"/>
  <text x="400" y="30" text-anchor="middle" font-size="22" font-weight="700">R²値と自由度調整済みR²値</text>
  <line x1="70" y1="340" x2="776" y2="340" stroke="#344054"/>
  <line x1="70" y1="54" x2="70" y2="340" stroke="#344054"/>
  <text transform="translate(22 215) rotate(-90)" text-anchor="middle" font-size="18">0〜1の割合</text>
  <line x1="65" y1="340" x2="70" y2="340" stroke="#344054"/>
    <text x="60" y="344" text-anchor="end" font-size="13">0.00</text><line x1="65" y1="268.5" x2="70" y2="268.5" stroke="#344054"/>
    <text x="60" y="272.5" text-anchor="end" font-size="13">0.25</text><line x1="65" y1="197" x2="70" y2="197" stroke="#344054"/>
    <text x="60" y="201" text-anchor="end" font-size="13">0.50</text><line x1="65" y1="125.5" x2="70" y2="125.5" stroke="#344054"/>
    <text x="60" y="129.5" text-anchor="end" font-size="13">0.75</text><line x1="65" y1="54" x2="70" y2="54" stroke="#344054"/>
    <text x="60" y="58" text-anchor="end" font-size="13">1.00</text><rect x="119.42000000000002" y="339.89000902626725" width="64.24666666666667" height="0.10999097373274935" fill="#2364aa"/>
      <text x="153.54333333333335" y="333.89000902626725" text-anchor="middle" font-size="12">0.00</text><rect x="187.66666666666669" y="343.5552655522451" width="64.24666666666667" height="-3.555265552245089" fill="#d64545"/>
      <text x="221.79000000000002" y="337.5552655522451" text-anchor="middle" font-size="12">-0.01</text><text x="187.66666666666669" y="382" text-anchor="middle" font-size="14">架電数のみ</text><rect x="354.75333333333333" y="133.56573369125957" width="64.24666666666667" height="206.43426630874043" fill="#2364aa"/>
      <text x="388.87666666666667" y="127.56573369125957" text-anchor="middle" font-size="12">0.72</text><rect x="423" y="136.7064863369672" width="64.24666666666667" height="203.2935136630328" fill="#d64545"/>
      <text x="457.12333333333333" y="130.7064863369672" text-anchor="middle" font-size="12">0.71</text><text x="423" y="382" text-anchor="middle" font-size="14">営業活動3変数</text><rect x="590.0866666666667" y="133.5302549557792" width="64.24666666666667" height="206.4697450442208" fill="#2364aa"/>
      <text x="624.21" y="127.53025495577921" text-anchor="middle" font-size="12">0.72</text><rect x="658.3333333333334" y="137.77186855342077" width="64.24666666666667" height="202.22813144657923" fill="#d64545"/>
      <text x="692.4566666666667" y="131.77186855342077" text-anchor="middle" font-size="12">0.71</text><text x="658.3333333333334" y="382" text-anchor="middle" font-size="14">薄い変数も追加</text><rect x="620" y="58" width="16" height="16" fill="#2364aa"/><text x="644" y="71" font-size="15">R²</text><rect x="620" y="82" width="16" height="16" fill="#d64545"/><text x="644" y="95" font-size="15">調整済みR²</text>
  </svg>