<svg xmlns="http://www.w3.org/2000/svg" width="760" height="430" viewBox="0 0 760 430">
  <rect width="100%" height="100%" fill="#fff"/>
  <text x="380" y="30" text-anchor="middle" font-size="22" font-weight="700">ばらつきの分解</text>
  <line x1="80" y1="358" x2="730" y2="358" stroke="#344054"/>
  <line x1="80" y1="55" x2="80" y2="358" stroke="#344054"/>
  <text transform="translate(22 215) rotate(-90)" text-anchor="middle" font-size="18">平方和</text>
  <line x1="75" y1="358" x2="80" y2="358" stroke="#344054"/>
      <text x="70" y="362" text-anchor="end" font-size="13">0</text><line x1="75" y1="282.25" x2="80" y2="282.25" stroke="#344054"/>
      <text x="70" y="286.25" text-anchor="end" font-size="13">156</text><line x1="75" y1="206.5" x2="80" y2="206.5" stroke="#344054"/>
      <text x="70" y="210.5" text-anchor="end" font-size="13">312</text><line x1="75" y1="130.75" x2="80" y2="130.75" stroke="#344054"/>
      <text x="70" y="134.75" text-anchor="end" font-size="13">467</text><line x1="75" y1="55" x2="80" y2="55" stroke="#344054"/>
      <text x="70" y="59" text-anchor="end" font-size="13">623</text><rect x="169.375" y="94.5217391304347" width="146.25" height="263.4782608695653" fill="#2364aa"/>
    <text x="242.5" y="396" text-anchor="middle" font-size="16">説明できた(SSR)</text>
    <text x="242.5" y="86.5217391304347" text-anchor="middle" font-size="14">541.9</text><rect x="494.375" y="256.4478618175201" width="146.25" height="101.5521381824799" fill="#9aa6b2"/>
    <text x="567.5" y="396" text-anchor="middle" font-size="16">残りの誤差(SSE)</text>
    <text x="567.5" y="248.4478618175201" text-anchor="middle" font-size="14">208.9</text>
  </svg>