<svg xmlns="http://www.w3.org/2000/svg" width="760" height="430" viewBox="0 0 760 430">
  <rect width="100%" height="100%" fill="#fff"/>
  <text x="380" y="30" text-anchor="middle" font-size="22" font-weight="700">カイ二乗分布</text>
  <line x1="72" y1="368" x2="734" y2="368" stroke="#344054"/>
  <line x1="72" y1="52" x2="72" y2="368" stroke="#344054"/>
  <text x="380" y="414" text-anchor="middle" font-size="18">値</text>
  <text transform="translate(22 215) rotate(-90)" text-anchor="middle" font-size="18">密度</text>
  <line x1="72" y1="368" x2="72" y2="373" stroke="#344054"/>
      <text x="72" y="392" text-anchor="middle" font-size="13">0</text><line x1="237.5" y1="368" x2="237.5" y2="373" stroke="#344054"/>
      <text x="237.5" y="392" text-anchor="middle" font-size="13">5</text><line x1="403" y1="368" x2="403" y2="373" stroke="#344054"/>
      <text x="403" y="392" text-anchor="middle" font-size="13">10</text><line x1="568.5" y1="368" x2="568.5" y2="373" stroke="#344054"/>
      <text x="568.5" y="392" text-anchor="middle" font-size="13">15</text><line x1="734" y1="368" x2="734" y2="373" stroke="#344054"/>
      <text x="734" y="392" text-anchor="middle" font-size="13">20</text><line x1="67" y1="368" x2="72" y2="368" stroke="#344054"/>
      <text x="62" y="372" text-anchor="end" font-size="13">0.00</text><line x1="67" y1="210" x2="72" y2="210" stroke="#344054"/>
      <text x="62" y="214" text-anchor="end" font-size="13">0.72</text><line x1="67" y1="52" x2="72" y2="52" stroke="#344054"/>
      <text x="62" y="56" text-anchor="end" font-size="13">1.43</text><polyline points="72,368 74.75833333333334,75.40740740740745 77.51666666666667,169.54925853482717 80.275,212.57835797866866 83.03333333333333,238.8939716589203 85.79166666666667,257.23669362461595 88.55,271.01385778801375 91.30833333333334,281.8727289753044 94.06666666666666,290.72320357291125 96.825,298.116082055149 99.58333333333334,304.4079396077332 102.34166666666667,309.8418008290733 105.1,314.59018587332525 107.85833333333332,318.7796825911518 110.61666666666667,322.5057547026596 113.375,325.84207277355557 116.13333333333333,328.8466177287035 118.89166666666667,331.5658021939077 121.65,334.0373306823564 124.40833333333333,336.2922324856074 127.16666666666667,338.3563372010127 129.925,340.2513658196305 132.68333333333334,341.99575105135017 135.44166666666666,343.60526335353876 138.2,345.0934951698371 140.95833333333334,346.47224010922673 143.71666666666664,347.7517931953773 146.47500000000002,348.9411910624149 149.23333333333335,350.04840592562357 151.99166666666667,351.0805035890171 154.75,352.0437731959234 157.50833333333333,352.94383457332094 160.26666666666665,353.7857276574416 163.025,354.57398747531306 165.78333333333333,355.3127073965448 168.54166666666666,356.0055927932723 171.3,356.65600680526785 174.05833333333334,357.26700956707765 176.81666666666666,357.8413919895261 179.575,358.3817049806652 182.33333333333334,358.89028482769635 185.09166666666667,359.3692753314611 187.85,359.8206471812231 190.60833333333335,360.24621497391524 193.36666666666667,360.6476522144455 196.125,361.02650457868924 198.88333333333333,361.38420167586236 201.64166666666665,361.7220675100515 204.4,362.0413298102086 207.15833333333333,362.3431283726495 209.91666666666669,362.628522539059 212.67499999999998,362.8984979154141 215.4333333333333,363.15397242247076 218.1916666666667,363.3958017560167 220.95000000000002,363.62478432457146 223.70833333333331,363.8416657232859 226.46666666666667,364.04714279518964 229.225,364.24186732444093 231.98333333333332,364.4264494006697 234.74166666666667,364.6014604887186 237.5,364.76743623396885 240.25833333333333,364.92487902987074 243.01666666666668,365.0742603712129 245.775,365.21602301398144 248.53333333333333,365.35058296032133 251.29166666666669,365.47833128507324 254.05,365.59963581857113 256.80833333333334,365.71484269882103 259.56666666666666,365.8242778048008 262.325,365.92824808140983 265.0833333333333,366.0270427655237 267.8416666666667,366.1209345216616 270.6,366.21018049493466 273.35833333333335,366.29502328819535 276.1166666666667,366.3756918696454 278.875,366.4524024165677 281.6333333333333,366.5253591003192 284.39166666666665,366.5947548172488 287.15,366.66077186978237 289.9083333333333,366.72358260153425 292.6666666666667,366.7833499899689 295.425,366.8402281998218 298.18333333333334,366.8943631002193 300.94166666666666,366.9458927481815 303.7,366.99494784097084 306.4583333333333,367.0416521395415 309.2166666666667,367.0861228651617 311.975,367.12847107111253 314.73333333333335,367.168801991213 317.4916666666667,367.20721536678514 320.25,367.24380575354274 323.0083333333333,367.2786628097763 325.76666666666665,367.3118715670977 328.52500000000003,367.3435126849148 331.2833333333333,367.3736626897176 334.0416666666667,367.40239420017576 336.8,367.4297761389759 339.55833333333334,367.4558739322577 342.31666666666666,367.4807496974461 345.075,367.50446242022053 347.83333333333337,367.52706812130924 350.59166666666664,367.5486200137466 353.34999999999997,367.56916865119115 356.10833333333335,367.58876206785607 358.8666666666666,367.6074459105689 361.625,367.62526356344176 364.3833333333334,367.6422562656 367.14166666666665,367.65846322238866 369.90000000000003,367.67392171044713 372.65833333333336,367.68866717701707 375.41666666666663,367.7027333338254 378.175,367.7161522458615 380.93333333333334,367.7289544153471 383.69166666666666,367.7411688611785 386.45,367.7528231941034 389.20833333333337,367.7639436878775 391.96666666666664,367.7745553466308 394.72499999999997,367.78468196866004 397.48333333333335,367.79434620684873 400.2416666666666,367.8035696259057 403,367.81237275660044 405.7583333333333,367.82077514716235 408.51666666666665,367.8287954120025 411.275,367.83645127790453 414.03333333333336,367.8437596278262 416.79166666666663,367.85073654243985 419.55,367.8573973395378 422.30833333333334,367.8637566114171 425.06666666666666,367.8698282603538 427.825,367.8756255322691 430.58333333333337,367.8811610486858 433.34166666666664,367.8864468370645 436.1,367.8914943596083 438.85833333333335,367.8963145406151 441.6166666666667,367.9009177924562 444.375,367.9053140402523 447.1333333333333,367.9095127453162 449.89166666666665,367.91352292742636 452.65,367.91735318599245 455.40833333333336,367.9210117201709 458.16666666666663,367.924506347984 460.925,367.92784452449536 463.68333333333334,367.931033359089 466.44166666666666,367.93407963189935 469.2,367.9369898094349 471.95833333333337,367.9397700594369 474.71666666666664,367.94242626501216 477.475,367.94496403807693 480.23333333333335,367.9473887321464 482.9916666666667,367.94970545450343 485.75,367.9519190777771 488.5083333333333,367.9540342509616 491.26666666666665,367.9560554099027 494.025,367.9579867872791 496.78333333333336,367.9598324221035 499.54166666666663,367.96159616876713 502.3,367.9632817056513 505.05833333333334,367.9648925433262 507.81666666666666,367.9664320323582 510.575,367.96790337074503 513.3333333333334,367.9693096109961 516.0916666666667,367.9706536668773 518.85,367.9719383198345 521.6083333333333,367.97316622511323 524.3666666666667,367.9743399175885 527.125,367.9754618173193 529.8833333333333,367.9765342348406 532.6416666666667,367.9775593762064 535.4,367.97853934779505 538.1583333333333,367.97947616088925 540.9166666666666,367.98037173604064 543.675,367.9812279072301 546.4333333333334,367.98204642583346 549.1916666666666,367.9828289644013 551.95,367.98357712026296 554.7083333333334,367.984292418962 557.4666666666667,367.9849763175322 560.225,367.98563020762026 562.9833333333333,367.9862554184647 565.7416666666667,367.9868532197354 568.5,367.98742482424217 571.2583333333333,367.9879713905177 574.0166666666667,367.9884940252811 576.775,367.98899378578767 579.5333333333333,367.9894716820702 582.2916666666666,367.9899286790768 585.0500000000001,367.9903656987109 587.8083333333334,367.99078362177636 590.5666666666666,367.9911832898343 593.3249999999999,367.99156550697404 596.0833333333334,367.9919310415029 598.8416666666666,367.9922806275587 601.6,367.9926149666485 604.3583333333332,367.99293472911677 607.1166666666667,367.99324055554655 609.875,367.993533058097 612.6333333333333,367.9938128217792 615.3916666666668,367.9940804056748 618.15,367.99433634409814 620.9083333333333,367.99458114770647 623.6666666666667,367.9948153045589 626.4250000000001,367.9950392811282 629.1833333333333,367.99525352326543 631.9416666666667,367.9954584571222 634.6999999999999,367.9956544900302 637.4583333333333,367.9958420113412 640.2166666666667,367.9960213932294 642.975,367.99619299145684 645.7333333333332,367.99635714610486 648.4916666666667,367.9965141822723 651.25,367.99666441074226 654.0083333333333,367.9968081286187 656.7666666666668,367.99694561993465 659.525,367.99707715623276 662.2833333333333,367.9972029971199 665.0416666666667,367.99732339079696 667.8000000000001,367.9974385745645 670.5583333333333,367.99754877530626 673.3166666666667,367.9976542099502 676.0749999999999,367.99775508591 678.8333333333333,367.9978516015056 681.5916666666667,367.99794394636564 684.35,367.9980323018119 687.1083333333332,367.99811684122625 689.8666666666667,367.9981977304013 692.625,367.9982751278755 695.3833333333333,367.9983491852535 698.1416666666668,367.9984200475115 700.9,367.99848785328976 703.6583333333333,367.99855273517187 706.4166666666667,367.99861481995123 709.1750000000001,367.9986742288862 711.9333333333333,367.99873107794355 714.6916666666667,367.99878547803127 717.4499999999999,367.99883753522096 720.2083333333333,367.9988873509603 722.9666666666667,367.99893502227627 725.725,367.99898064196924 728.4833333333332,367.9990242987985 731.2416666666667,367.9990660776593 734,367.99910605975276" fill="none" stroke="#344054" stroke-width="3"/><polyline points="72,368 74.75833333333334,343.6172839506173 77.51666666666667,334.92487642247124 80.275,329.1445894946672 83.03333333333333,324.9646572196401 85.79166666666667,321.84862234359 88.55,319.5069288940069 91.30833333333334,317.75909190226093 94.06666666666666,316.4821357152742 96.825,315.5870615413618 99.58333333333334,315.0066163397777 102.34166666666667,314.68831742665054 105.1,314.5901858733253 107.85833333333332,314.67798947374786 110.61666666666667,314.9233804864362 113.375,315.30259096694454 116.13333333333333,315.795490304938 118.89166666666667,316.3848864413693 121.65,317.05599602353465 124.40833333333333,317.7960347688785 127.16666666666667,318.5938953350212 129.925,319.43989018435343 132.68333333333334,320.325543594142 135.44166666666666,321.243421427616 138.2,322.18699033967425 140.95833333333334,323.15050022755565 143.71666666666664,324.12888525665073 146.47500000000002,325.1176798904335 149.23333333333335,326.11294715978835 151.99166666666667,327.1112170067913 154.75,328.10943298980845 157.50833333333333,329.1049059810791 160.26666666666665,330.0952737531777 163.025,331.07846555711103 165.78333333333333,332.0526709568769 168.54166666666666,333.0163123137109 171.3,333.9680204158035 174.05833333333334,334.9066128318227 176.81666666666666,335.8310746334992 179.575,336.74054118716185 182.33333333333334,337.6342827589878 185.09166666666667,338.5116907158254 187.85,339.3722651342808 190.60833333333335,340.21560365652954 193.36666666666667,341.04139145296676 196.125,341.84939217008474 198.88333333333333,342.63943975747236 201.64166666666665,343.41143108103495 204.4,344.1653192408344 207.15833333333333,344.90110752165225 209.91666666666669,345.6188439127459 212.67499999999998,346.31861614050996 215.4333333333333,347.00054716404003 218.1916666666667,347.66479108907373 220.95000000000002,348.3115294605717 223.70833333333331,348.940967898394 226.46666666666667,349.55333304421833 229.225,350.14886979109457 231.98333333333332,350.7278387699034 234.74166666666667,351.290514069533 237.5,351.8371811698443 240.25833333333333,352.3681350685095 243.01666666666668,352.8836785845999 245.775,353.38412082340255 248.53333333333333,353.8697757883806 251.29166666666669,354.34096112748 254.05,354.7979970021412 256.80833333333334,355.24120506841734 259.56666666666666,355.67090756053784 262.325,356.0874264681066 265.0833333333333,356.4910827988881 267.8416666666667,356.882195919831 270.6,357.261082969608 273.35833333333335,357.6280583365218 276.1166666666667,357.9834331961465 278.875,358.3275151035479 281.6333333333333,358.66060763535467 284.39166666666665,358.98301007734676 287.15,359.2950171535852 289.9083333333333,359.596918793434 292.6666666666667,359.888999933126 295.425,360.1715403487974 298.18333333333334,360.44481451816523 300.94166666666666,360.7090915082555 303.7,360.964634886796 306.4583333333333,361.21170265508556 309.2166666666667,361.45054720032573 311.975,361.6814152655658 314.73333333333335,361.90454793556216 317.4916666666667,362.12018063698963 320.25,362.3285431515705 323.0083333333333,362.5298596408036 325.76666666666665,362.7243486810821 328.52500000000003,362.9122233080898 331.2833333333333,363.0936910694547 334.0416666666667,363.26895408472495 336.8,363.4382091118075 339.55833333333334,363.60164761908305 342.31666666666666,363.7594558624761 345.075,363.91181496681963 347.83333333333337,364.0589010109102 350.59166666666664,364.2008851157004 353.34999999999997,364.3379335351249 356.10833333333335,364.4702077490981 358.8666666666666,364.5978645582641 361.625,364.7210561801154 364.3833333333334,364.83993034613314 367.14166666666665,364.9546303996323 369.90000000000003,365.06529539402425 372.65833333333336,365.17206019123813 375.41666666666663,365.27505556006594 378.175,365.374408274219 380.93333333333334,365.4702412099064 383.69166666666666,365.5626734427643 386.45,365.65182034398237 389.20833333333337,365.7377936754924 391.96666666666664,365.82070168409774 394.72499999999997,365.90064919443546 397.48333333333335,365.97773770067914 400.2416666666666,366.0520654568984 403,366.12372756600445 405.7583333333333,366.1928160672206 408.51666666666665,366.259420022025 411.275,366.32362559852163 414.03333333333336,366.38551615420397 416.79166666666663,366.44517231708164 419.55,366.5026720651469 422.30833333333334,366.5580908041646 425.06666666666666,366.61150144377376 427.825,366.6629744718932 430.58333333333337,366.71257802742946 433.34166666666664,366.76037797128765 436.1,366.8064379556912 438.85833333333335,366.85081949181733 441.6166666666667,366.8935820157609 444.375,366.9347829528384 447.1333333333333,366.97447778025025 449.89166666666665,367.0127200881173 452.65,367.0495616389132 455.40833333333336,367.08505242531277 458.16666666666663,367.1192407264802 460.925,367.15217316282053 463.68333333333334,367.1838947492199 466.44166666666666,367.2144489468009 469.2,367.24387771321926 471.95833333333337,367.27222155152947 474.71666666666664,367.2995195576482 477.475,367.3258094664425 480.23333333333335,367.3511276964726 482.9916666666667,367.3755093934177 485.75,367.39898847221394 488.5083333333333,367.42159765793343 491.26666666666665,367.4433685254342 494.025,367.4643315378087 496.78333333333336,367.4845160836611 499.54166666666663,367.5039505132419 502.3,367.5226621734668 505.05833333333334,367.54067744185096 507.81666666666666,367.5580217593834 510.575,367.5747196623714 513.3333333333334,367.59079481328166 516.0916666666667,367.60627003060404 518.85,367.6211673177657 521.6083333333333,367.63550789112105 524.3666666666667,367.64931220704284 527.125,367.6625999881404 529.8833333333333,367.67539024862845 532.6416666666667,367.6877013188721 535.4,367.6995508691305 538.1583333333333,367.7109559325233 540.9166666666666,367.72193292724205 543.675,367.73249767802923 546.4333333333334,367.7426654369462 549.1916666666666,367.752450903452 551.95,367.7618682438126 554.7083333333334,367.77093110986294 557.4666666666667,367.7796526571385 560.225,367.7880455623988 562.9833333333333,367.7961220405596 565.7416666666667,367.803893861053 568.5,367.8113723636325 571.2583333333333,367.8185684736419 574.0166666666667,367.82549271676345 576.775,367.83215523326214 579.5333333333333,367.8385657917427 582.2916666666666,367.84473380243435 585.0500000000001,367.8506683300185 587.8083333333334,367.8563781060146 590.5666666666666,367.86187154073747 593.3249999999999,367.8671567348413 596.0833333333334,367.87224149046267 598.8416666666666,367.87713332197626 601.6,367.88183946637616 604.3583333333332,367.8863668932943 607.1166666666667,367.89072231466935 609.875,367.89491219407597 612.6333333333333,367.8989427557275 615.3916666666668,367.9028199931615 618.15,367.90654967761964 620.9083333333333,367.910137366132 623.6666666666667,367.9135884093156 626.4250000000001,367.91690795889696 629.1833333333333,367.92010097496797 631.9416666666667,367.9231722329839 634.6999999999999,367.92612633051317 637.4583333333333,367.928967693746 640.2166666666667,367.93170058377154 642.975,367.93432910263033 645.7333333333332,367.93685719915067 648.4916666666667,367.93928867457583 651.25,367.94162718798935 654.0083333333333,367.9438762615456 656.7666666666668,367.94603928551226 659.525,367.9481195231315 662.2833333333333,367.95012011530525 665.0416666666667,367.9520440851124 667.8000000000001,367.9538943421617 670.5583333333333,367.9556736867879 673.3166666666667,367.957384814096 676.0749999999999,367.9590303178579 678.8333333333333,367.960612694269 681.5916666666667,367.96213434556705 684.35,367.9635975835202 687.1083333333332,367.9650046327874 689.8666666666667,367.96635763415685 692.625,367.96765864766604 695.3833333333333,367.9689096556076 698.1416666666668,367.9701125654256 700.9,367.9712692125057 703.6583333333333,367.9723813628631 706.4166666666667,367.9734507157318 709.1750000000001,367.9744789060593 711.9333333333333,367.97546750690884 714.6916666666667,367.9764180317742 717.4499999999999,367.9773319368087 720.2083333333333,367.9782106229724 722.9666666666667,367.97905543810003 725.725,367.97986767889273 728.4833333333332,367.9806485928361 731.2416666666667,367.9813993800475 734,367.982121195055" fill="none" stroke="#2364aa" stroke-width="3"/><polyline points="72,368 74.75833333333334,367.998723714994 77.51666666666667,367.9902064070239 80.275,367.9682955499365 83.03333333333333,367.9279156758652 85.79166666666667,367.8649560083342 88.55,367.7761673681665 91.30833333333334,367.6590676856028 94.06666666666666,367.5118554957507 96.825,367.3333308355199 99.58333333333334,367.12282299869815 102.34166666666667,366.8801246419508 105.1,366.6054317684093 107.85833333333332,366.29928914729186 110.61666666666667,365.96254075779154 113.375,365.5962848733951 116.13333333333333,365.20183342896695 118.89166666666667,364.7806753374517 121.65,364.33444344601844 124.40833333333333,363.8648848429747 127.16666666666667,363.3738342469154 129.925,362.86319022841604 132.68333333333334,362.33489403221205 135.44166666666666,361.7909107843016 138.2,361.233212883832 140.95833333333334,360.66376539404945 143.71666666666664,360.0845132600685 146.47500000000002,359.4973701938069 149.23333333333335,358.9042090781894 151.99166666666667,358.3068537537053 154.75,357.7070720606462 157.50833333333333,357.10657001991615 160.26666666666665,356.5069870442153 163.025,355.9098920797168 165.78333333333333,355.3167805860982 168.54166666666666,354.72907227000536 171.3,354.14810949374794 174.05833333333334,353.5751562872756 176.81666666666666,353.0113978973045 179.575,352.4579408128713 182.33333333333334,351.9158132116211 185.09166666666667,351.385965775806 187.85,350.8692728313058 190.60833333333335,350.36653376700946 193.36666666666667,349.8784746956245 196.125,349.4057503204424 198.88333333333333,348.94894597579093 201.64166666666665,348.50857981187215 204.4,348.08510509742405 207.15833333333333,347.67891261618576 209.91666666666669,347.29033313548337 212.67499999999998,346.919639927419 215.4333333333333,346.56705132513844 218.1916666666667,346.23273329848996 220.95000000000002,345.91680203507804 223.70833333333331,345.6193265142726 226.46666666666667,345.3403310631605 229.225,345.079797884741 231.98333333333332,344.83766954986623 234.74166666666667,344.61385144552946 237.5,344.408214173111 240.25833333333333,344.2205958911089 243.01666666666668,344.05080459772034 245.775,343.89862034940114 248.53333333333333,343.7637974122254 251.29166666666669,343.6460663434923 254.05,343.54513600159873 256.80833333333334,343.4606954827079 259.56666666666666,343.3924159832065 262.325,343.33995258735945 265.0833333333333,343.3029459799409 267.8416666666667,343.28102408395495 270.6,343.2738036238517 273.35833333333335,343.2808916149073 276.1166666666667,343.30188677966703 278.875,343.33638089254947 281.6333333333333,343.3839600538891 284.39166666666665,343.44420589484287 287.15,343.516696714718 289.9083333333333,343.60100855238636 292.6666666666667,343.696716193544 295.425,343.80339411564756 298.18333333333334,343.92061737242096 300.94166666666666,344.04796241987003 303.7,344.18500788577865 306.4583333333333,344.33133528468164 309.2166666666667,344.48652968032275 311.975,344.6501802976101 314.73333333333335,344.8218810860776 317.4916666666667,345.0012312368484 320.25,345.18783565508096 323.0083333333333,345.3813053898524 325.76666666666665,345.58125802340874 328.52500000000003,345.78731802167607 331.2833333333333,345.99911704789326 334.0416666666667,346.21629424118595 336.8,346.43849646186004 339.55833333333334,346.6653785051486 342.31666666666666,346.89660328509996 345.075,347.1318419902466 347.83333333333337,347.3707742126467 350.59166666666664,347.6130880518392 353.34999999999997,347.8584801952033 356.10833333333335,348.1066559761629 358.8666666666666,348.35732941162604 361.625,348.61022321999593 364.3833333333334,348.8650688210439 367.14166666666665,349.12160631887974 369.90000000000003,349.3795844692087 372.65833333333336,349.6387606320133 375.41666666666663,349.8989007107507 378.175,350.1597790791075 380.93333333333334,350.4211784963099 383.69166666666666,350.6828900119381 386.45,350.94471286115214 389.20833333333337,351.206454351191 391.96666666666664,351.4679297399656 394.72499999999997,351.72896210752435 397.48333333333335,351.98938222113014 400.2416666666666,352.24902839464954 403,352.507746342916 405.7583333333333,352.76538903169404 408.51666666666665,353.021816523835 411.275,353.27689582218244 414.03333333333336,353.53050070975036 416.79166666666663,353.78251158766955 419.55,354.0328153113629 422.30833333333334,354.28130502538505 425.06666666666666,354.5278799973314 427.825,354.7724454511967 430.58333333333337,355.01491240053576 433.34166666666664,355.2551974817565 436.1,355.49322278785036 438.85833333333335,355.7289157028431 441.6166666666667,355.96220873722933 444.375,356.1930393646306 447.1333333333333,356.42134985990043 449.89166666666665,356.64708713887995 452.65,356.8702025999896 455.40833333333336,357.0906519678279 458.16666666666663,357.30839513892903 460.925,357.52339602982056 463.68333333333334,357.7356224275039 466.44166666666666,357.94504584246994 469.2,358.15164136434777 471.95833333333337,358.3553875202743 474.71666666666664,358.55626613605864 477.475,358.75426220020785 480.23333333333335,358.9493637308676 482.9916666666667,359.14156164572404 485.75,359.33084963490353 488.5083333333333,359.5172240368991 491.26666666666665,359.70068371754405 494.025,359.88122995204697 496.78333333333336,360.05886631009537 499.54166666666663,360.2335985440286 502.3,360.40543448007514 505.05833333333334,360.5743839126447 507.81666666666666,360.7404585016593 510.575,360.90367167290464 513.3333333333334,361.0640385213768 516.0916666666667,361.2215757175978 518.85,361.37630141686776 521.6083333333333,361.5282351714207 524.3666666666667,361.6773978454449 527.125,361.8238115329298 529.8833333333333,361.96749947829613 532.6416666666667,362.1084859997647 535.4,362.24679641541894 538.1583333333333,362.3824569719115 540.9166666666666,362.5154947757673 543.675,362.64593772723117 546.4333333333334,362.77381445660916 549.1916666666666,362.8991542630505 551.95,363.0219870557173 554.7083333333334,363.1423432972878 557.4666666666667,363.26025394973914 560.225,363.3757504223547 562.9833333333333,363.4888645219012 565.7416666666667,363.59962840492125 568.5,363.70807453208545 571.2583333333333,363.8142356245503 574.0166666666667,363.9181446222666 576.775,364.01983464418475 579.5333333333333,364.1193389503027 582.2916666666666,364.2166909055029 585.0500000000001,364.3119239451266 587.8083333333334,364.4050715422314 590.5666666666666,364.49616717648183 593.3249999999999,364.5852443046213 596.0833333333334,364.6723363324751 598.8416666666666,364.7574765884352 601.6,364.84069829837813 604.3583333333332,364.92203456196745 607.1166666666667,365.0015183302947 609.875,365.0791823848117 612.6333333333333,365.15505931750965 615.3916666666668,365.2291815123001 618.15,365.30158112755487 620.9083333333333,365.3722900797619 623.6666666666667,365.44134002825575 626.4250000000001,365.50876236098225 629.1833333333333,365.5745881812573 631.9416666666667,365.63884829548164 634.6999999999999,365.7015732017731 637.4583333333333,365.76279307948056 640.2166666666667,365.8225377795429 642.975,365.8808368156588 645.7333333333332,365.9377193562327 648.4916666666667,365.9932142170652 651.25,366.04734985475415 654.0083333333333,366.100154360777 656.7666666666668,366.1516554562234 659.525,366.2018804871483 662.2833333333333,366.2508564205182 665.0416666666667,366.29860984072235 667.8000000000001,366.34516694662244 670.5583333333333,366.39055354911477 673.3166666666667,366.4347950691801 676.0749999999999,366.47791653639683 678.8333333333333,366.51994258789466 681.5916666666667,366.56089746772545 684.35,366.60080502662976 687.1083333333332,366.63968872217833 689.8666666666667,366.67757161926784 692.625,366.7144763909513 695.3833333333333,366.75042531958456 698.1416666666668,366.7854402982706 700.9,366.81954283258386 703.6583333333333,366.8527540425582 706.4166666666667,366.8850946649219 709.1750000000001,366.916585055564 711.9333333333333,366.9472451922181 714.6916666666667,366.9770946773472 717.4499999999999,367.00615274121844 720.2083333333333,367.03443824515136 722.9666666666667,367.06196968493003 725.725,367.0887651943648 728.4833333333332,367.1148425489929 731.2416666666667,367.1402191699065 734,367.16491212769745" fill="none" stroke="#d64545" stroke-width="3"/><line x1="610" y1="62" x2="634" y2="62" stroke="#344054" stroke-width="3"/><text x="642" y="67" font-size="14">df=1</text><line x1="610" y1="86" x2="634" y2="86" stroke="#2364aa" stroke-width="3"/><text x="642" y="91" font-size="14">df=3</text><line x1="610" y1="110" x2="634" y2="110" stroke="#d64545" stroke-width="3"/><text x="642" y="115" font-size="14">df=8</text>
  </svg>