<svg xmlns="http://www.w3.org/2000/svg" width="760" height="430" viewBox="0 0 760 430">
  <rect width="100%" height="100%" fill="#fff"/>
  <text x="380" y="30" text-anchor="middle" font-size="22" font-weight="700">t分布とp値の見方</text>
  <line x1="72" y1="362" x2="734" y2="362" stroke="#344054"/>
  <line x1="72" y1="52" x2="72" y2="362" stroke="#344054"/>
  <text x="380" y="412" text-anchor="middle" font-size="18">t値</text>
  <text transform="translate(22 215) rotate(-90)" text-anchor="middle" font-size="18">密度</text>
  <line x1="72" y1="362" x2="72" y2="367" stroke="#344054"/>
    <text x="72" y="386" text-anchor="middle" font-size="13">-4</text><line x1="237.5" y1="362" x2="237.5" y2="367" stroke="#344054"/>
    <text x="237.5" y="386" text-anchor="middle" font-size="13">-2</text><line x1="403" y1="362" x2="403" y2="367" stroke="#344054"/>
    <text x="403" y="386" text-anchor="middle" font-size="13">0</text><line x1="568.5" y1="362" x2="568.5" y2="367" stroke="#344054"/>
    <text x="568.5" y="386" text-anchor="middle" font-size="13">2</text><line x1="734" y1="362" x2="734" y2="367" stroke="#344054"/>
    <text x="734" y="386" text-anchor="middle" font-size="13">4</text><line x1="67" y1="362" x2="72" y2="362" stroke="#344054"/>
    <text x="62" y="366" text-anchor="end" font-size="13">0.0</text><line x1="67" y1="217.6268516518401" x2="72" y2="217.6268516518401" stroke="#344054"/>
    <text x="62" y="221.6268516518401" text-anchor="end" font-size="13">0.2</text><line x1="67" y1="73.2537033036802" x2="72" y2="73.2537033036802" stroke="#344054"/>
    <text x="62" y="77.2537033036802" text-anchor="end" font-size="13">0.4</text><polygon points="72,362 72,361.81658709549663 74.06875,361.80060963031707 76.13749999999999,361.7833148394828 78.20625000000001,361.76460148279494 80.275,361.7443612438972 82.34375,361.72247830064833 84.4125,361.69882887522334 86.48124999999999,361.6732807635021 88.55000000000001,361.6456928433507 90.61875,361.615914561446 92.6875,361.58378539834933 94.75625,361.54913431159656 96.82499999999999,361.51177915664283 98.89375000000001,361.4715260855747 100.9625,361.42816892359036 103.03125,361.3814885233409 105.1,361.33125209732964 107.16874999999999,361.27721252867883 109.23750000000001,361.2191076606956 111.30625,361.1566595658001 113.375,361.0895737945229 115.44375,361.0175386054308 117.51249999999999,360.9402241770038 119.58125000000001,360.8572818026615 121.65,360.7683430703216 123.71875,360.67301902807094 125.7875,360.5708993377361 127.85624999999999,360.4615514183587 129.925,360.34451958181074 131.99375,360.2193241630232 134.0625,360.08546064755006 136.13125,359.94239879945144 138.2,359.7895817927424 140.26875,359.6264253499347 142.3375,359.4523168914781 144.40625,359.2666147001997 146.475,359.0686471051336 148.54375,358.85771168943364 150.6125,358.63307452736063 152.68125,358.393969455644 154.75,358.13959738481446 156.81875,357.86912565640984 158.8875,357.5816874522502 160.95625,357.276381262269 163.025,356.9522704176695 165.09375,356.6083826964464 167.1625,356.24371000856985 169.23125,355.8572081683715 171.3,355.44779676189404 173.36875,355.0143591171669 175.4375,354.55574238554874 177.50625,354.0707577424215 179.575,353.5581807156439 181.64375,353.01675165024915 183.7125,352.4451763179222 185.78125,351.84212667979153 187.85,351.20624181103483 189.91875,350.53612899570567 191.9875,349.8303650000549 194.05625,349.08749753242216 196.125,348.30604689753 198.19375,347.4845078526948 200.2625,346.6213516731068 202.33125,345.71502843288346 204.4,344.7639695081008 206.46875,343.7665903074328 208.5375,342.7212932353776 210.60625,341.6264708923357 212.675,340.480509515009 214.74375,339.2817926597238 216.8125,338.0287051303396 218.88125,336.7196371513918 220.95,335.3529887860269 223.01875,333.92717459713185 225.0875,332.4406285488289 227.15625,330.8918091442179 229.225,329.2792047938851 231.29375,327.6013394082868 233.3625,325.8567782056417 235.43125,324.0441337254558 237.5,322.16207203623 237.5,362" fill="#f06a6a" opacity="0.45"/><polygon points="568.5,362 568.5,322.16207203623 570.56875,324.0441337254558 572.6375,325.8567782056417 574.70625,327.6013394082868 576.775,329.2792047938851 578.84375,330.8918091442179 580.9125,332.4406285488289 582.98125,333.92717459713185 585.0500000000001,335.3529887860269 587.11875,336.71963715139157 589.1875,338.0287051303396 591.25625,339.2817926597238 593.3249999999999,340.480509515009 595.3937500000001,341.6264708923357 597.4625,342.7212932353776 599.53125,343.7665903074328 601.6,344.76396950810096 603.6687499999999,345.71502843288346 605.7375000000001,346.6213516731068 607.80625,347.4845078526948 609.875,348.30604689753 611.94375,349.0874975324223 614.0124999999999,349.8303650000549 616.0812500000001,350.53612899570567 618.15,351.20624181103483 620.21875,351.84212667979153 622.2875,352.4451763179222 624.3562499999999,353.01675165024915 626.4250000000001,353.5581807156439 628.49375,354.0707577424215 630.5625,354.55574238554874 632.63125,355.0143591171669 634.6999999999999,355.44779676189404 636.7687500000001,355.8572081683715 638.8375,356.24371000856985 640.90625,356.6083826964464 642.975,356.9522704176695 645.0437499999999,357.276381262269 647.1125000000001,357.5816874522502 649.18125,357.86912565640984 651.25,358.13959738481446 653.31875,358.393969455644 655.3874999999999,358.63307452736063 657.4562500000001,358.85771168943364 659.525,359.0686471051336 661.59375,359.2666147001997 663.6625,359.4523168914781 665.7312499999999,359.6264253499347 667.8000000000001,359.7895817927424 669.86875,359.94239879945144 671.9375,360.08546064755006 674.00625,360.2193241630232 676.0749999999999,360.34451958181074 678.1437500000001,360.4615514183587 680.2125,360.5708993377361 682.28125,360.67301902807094 684.35,360.7683430703216 686.4187499999999,360.8572818026615 688.4875000000001,360.9402241770038 690.55625,361.0175386054308 692.625,361.0895737945229 694.69375,361.1566595658001 696.7624999999999,361.2191076606956 698.8312500000001,361.27721252867883 700.9,361.33125209732964 702.96875,361.3814885233409 705.0375,361.42816892359036 707.1062499999999,361.4715260855747 709.1750000000001,361.51177915664283 711.24375,361.54913431159656 713.3125,361.58378539834933 715.38125,361.615914561446 717.4499999999999,361.6456928433507 719.5187500000001,361.6732807635021 721.5875,361.69882887522334 723.65625,361.72247830064833 725.725,361.7443612438972 727.7937499999999,361.76460148279494 729.8625000000001,361.7833148394828 731.93125,361.80060963031707 734,361.81658709549663 734,362" fill="#f06a6a" opacity="0.45"/><polyline points="72,361.81658709549663 74.06875,361.80060963031707 76.13749999999999,361.7833148394828 78.20625000000001,361.76460148279494 80.275,361.7443612438972 82.34375,361.72247830064833 84.4125,361.69882887522334 86.48124999999999,361.6732807635021 88.55000000000001,361.6456928433507 90.61875,361.615914561446 92.6875,361.58378539834933 94.75625,361.54913431159656 96.82499999999999,361.51177915664283 98.89375000000001,361.4715260855747 100.9625,361.42816892359036 103.03125,361.3814885233409 105.1,361.33125209732964 107.16874999999999,361.27721252867883 109.23750000000001,361.2191076606956 111.30625,361.1566595658001 113.375,361.0895737945229 115.44375,361.0175386054308 117.51249999999999,360.9402241770038 119.58125000000001,360.8572818026615 121.65,360.7683430703216 123.71875,360.67301902807094 125.7875,360.5708993377361 127.85624999999999,360.4615514183587 129.925,360.34451958181074 131.99375,360.2193241630232 134.0625,360.08546064755006 136.13125,359.94239879945144 138.2,359.7895817927424 140.26875,359.6264253499347 142.3375,359.4523168914781 144.40625,359.2666147001997 146.475,359.0686471051336 148.54375,358.85771168943364 150.6125,358.63307452736063 152.68125,358.393969455644 154.75,358.13959738481446 156.81875,357.86912565640984 158.8875,357.5816874522502 160.95625,357.276381262269 163.025,356.9522704176695 165.09375,356.6083826964464 167.1625,356.24371000856985 169.23125,355.8572081683715 171.3,355.44779676189404 173.36875,355.0143591171669 175.4375,354.55574238554874 177.50625,354.0707577424215 179.575,353.5581807156439 181.64375,353.01675165024915 183.7125,352.4451763179222 185.78125,351.84212667979153 187.85,351.20624181103483 189.91875,350.53612899570567 191.9875,349.8303650000549 194.05625,349.08749753242216 196.125,348.30604689753 198.19375,347.4845078526948 200.2625,346.6213516731068 202.33125,345.71502843288346 204.4,344.7639695081008 206.46875,343.7665903074328 208.5375,342.7212932353776 210.60625,341.6264708923357 212.675,340.480509515009 214.74375,339.2817926597238 216.8125,338.0287051303396 218.88125,336.7196371513918 220.95,335.3529887860269 223.01875,333.92717459713185 225.0875,332.4406285488289 227.15625,330.8918091442179 229.225,329.2792047938851 231.29375,327.6013394082868 233.3625,325.8567782056417 235.43125,324.0441337254558 237.5,322.16207203623 239.56875,320.2093191243209 241.6375,318.1846674492839 243.70625,316.08698264939915 245.775,313.9152103794152 247.84375,311.66838326089675 249.9125,309.3456279239092 251.98125,306.94617211715035 254.05,304.4693518620385 256.11875,301.9146186247113 258.1875,299.28154647839557 260.25625,296.5698392271605 262.325,293.7793374607288 264.39375,290.91002550874333 266.4625,287.96203826173627 268.53125,284.9356678250079 270.6,281.83136997070613 272.66875,278.6497703526439 274.7375,275.3916704477609 276.80625,272.0580531877176 278.875,268.6500882438094 280.94375,265.1691369283476 283.0125,261.61675667573905 285.08125,257.99470506685736 287.15,254.30494336080162 289.21875,250.54963949893818 291.2875,246.7311705470948 293.35625,242.85212454298065 295.425,238.91530171739646 297.49375,234.92371505944632 299.5625,230.88059019792493 301.63125,226.78936457316044 303.7,222.65368587601927 305.76875,218.47740973336323 307.8375,214.2645966220438 309.90625,210.0195079965898 311.975,205.74660161891725 314.04375,201.45052608180342 316.1125,197.136114521444 318.18125,192.80837751810105 320.25,188.472495187705 322.31875,184.13380847125407 324.3875,179.7978096328489 326.45625,175.47013198137583 328.52500000000003,171.1565388349905 330.59375,166.86291175170402 332.66249999999997,162.59523805361678 334.73125,158.35959767641717 336.8,154.16214937991634 338.86875000000003,150.00911635931092 340.9375,145.9067713008213 343.00624999999997,141.86142092906584 345.075,137.8793900970659 347.14375,133.96700547323329 349.21250000000003,130.13057888277348 351.28125,126.37639036387577 353.34999999999997,122.71067100171226 355.41875,119.13958560557703 357.4875,115.66921529653843 359.55625000000003,112.3055400747053 361.625,109.0544214364717 363.69374999999997,105.92158511316683 365.7625,102.91260400310125 367.83125,100.03288136916211 369.90000000000003,97.28763437401972 371.96875,94.68187802431441 374.03749999999997,92.22040959429393 376.10625,89.90779359786632 378.175,87.74834737635115 380.24375000000003,85.74612736691245 382.3125,83.90491611416263 384.38124999999997,82.22821008441622 386.45,80.71920833880029 388.51875,79.38080211775355 390.58750000000003,78.2155653855134 392.65625,77.22574637887755 394.72499999999997,76.41326020002168 396.79375,75.7796824883427 398.8625,75.32624420133277 400.93125000000003,75.05382752923327 403,74.96296296296293 405.06875,75.05382752923327 407.1375,75.32624420133277 409.20625,75.7796824883427 411.275,76.41326020002168 413.34375,77.22574637887755 415.4125,78.2155653855134 417.48125,79.38080211775355 419.55,80.71920833880029 421.61875,82.22821008441622 423.6875,83.90491611416263 425.75625,85.74612736691245 427.825,87.74834737635115 429.89375,89.90779359786632 431.9625,92.22040959429393 434.03125,94.68187802431441 436.1,97.28763437401972 438.16875,100.03288136916211 440.2375,102.91260400310125 442.30625,105.92158511316683 444.375,109.0544214364717 446.44375,112.3055400747053 448.5125,115.66921529653843 450.58125,119.13958560557703 452.65,122.71067100171226 454.71875,126.37639036387577 456.7875,130.13057888277348 458.85625,133.96700547323329 460.925,137.8793900970659 462.99375,141.86142092906584 465.0625,145.9067713008213 467.13125,150.00911635931092 469.2,154.16214937991634 471.26875,158.35959767641717 473.3375,162.59523805361678 475.40625,166.86291175170402 477.475,171.1565388349905 479.54375,175.47013198137583 481.6125,179.7978096328489 483.68125,184.13380847125407 485.75,188.472495187705 487.81875,192.80837751810105 489.8875,197.136114521444 491.95625,201.45052608180342 494.025,205.74660161891725 496.09375,210.0195079965898 498.1625,214.2645966220438 500.23125,218.47740973336323 502.3,222.65368587601927 504.36875,226.78936457316044 506.4375,230.88059019792493 508.50625,234.92371505944632 510.575,238.91530171739646 512.64375,242.85212454298065 514.7125,246.7311705470948 516.78125,250.54963949893818 518.85,254.30494336080162 520.91875,257.99470506685736 522.9875,261.61675667573905 525.05625,265.1691369283476 527.125,268.6500882438094 529.19375,272.0580531877176 531.2625,275.3916704477609 533.33125,278.6497703526439 535.4,281.83136997070613 537.46875,284.9356678250079 539.5375,287.96203826173627 541.60625,290.91002550874333 543.675,293.7793374607288 545.74375,296.56983922715995 547.8125,299.28154647839557 549.88125,301.9146186247113 551.95,304.4693518620385 554.01875,306.94617211715035 556.0875,309.3456279239092 558.15625,311.66838326089675 560.225,313.9152103794152 562.29375,316.08698264939915 564.3625,318.1846674492839 566.43125,320.2093191243209 568.5,322.16207203623 570.56875,324.0441337254558 572.6375,325.8567782056417 574.70625,327.6013394082868 576.775,329.2792047938851 578.84375,330.8918091442179 580.9125,332.4406285488289 582.98125,333.92717459713185 585.0500000000001,335.3529887860269 587.11875,336.71963715139157 589.1875,338.0287051303396 591.25625,339.2817926597238 593.3249999999999,340.480509515009 595.3937500000001,341.6264708923357 597.4625,342.7212932353776 599.53125,343.7665903074328 601.6,344.76396950810096 603.6687499999999,345.71502843288346 605.7375000000001,346.6213516731068 607.80625,347.4845078526948 609.875,348.30604689753 611.94375,349.0874975324223 614.0124999999999,349.8303650000549 616.0812500000001,350.53612899570567 618.15,351.20624181103483 620.21875,351.84212667979153 622.2875,352.4451763179222 624.3562499999999,353.01675165024915 626.4250000000001,353.5581807156439 628.49375,354.0707577424215 630.5625,354.55574238554874 632.63125,355.0143591171669 634.6999999999999,355.44779676189404 636.7687500000001,355.8572081683715 638.8375,356.24371000856985 640.90625,356.6083826964464 642.975,356.9522704176695 645.0437499999999,357.276381262269 647.1125000000001,357.5816874522502 649.18125,357.86912565640984 651.25,358.13959738481446 653.31875,358.393969455644 655.3874999999999,358.63307452736063 657.4562500000001,358.85771168943364 659.525,359.0686471051336 661.59375,359.2666147001997 663.6625,359.4523168914781 665.7312499999999,359.6264253499347 667.8000000000001,359.7895817927424 669.86875,359.94239879945144 671.9375,360.08546064755006 674.00625,360.2193241630232 676.0749999999999,360.34451958181074 678.1437500000001,360.4615514183587 680.2125,360.5708993377361 682.28125,360.67301902807094 684.35,360.7683430703216 686.4187499999999,360.8572818026615 688.4875000000001,360.9402241770038 690.55625,361.0175386054308 692.625,361.0895737945229 694.69375,361.1566595658001 696.7624999999999,361.2191076606956 698.8312500000001,361.27721252867883 700.9,361.33125209732964 702.96875,361.3814885233409 705.0375,361.42816892359036 707.1062499999999,361.4715260855747 709.1750000000001,361.51177915664283 711.24375,361.54913431159656 713.3125,361.58378539834933 715.38125,361.615914561446 717.4499999999999,361.6456928433507 719.5187500000001,361.6732807635021 721.5875,361.69882887522334 723.65625,361.72247830064833 725.725,361.7443612438972 727.7937499999999,361.76460148279494 729.8625000000001,361.7833148394828 731.93125,361.80060963031707 734,361.81658709549663" fill="none" stroke="#2364aa" stroke-width="3"/>
  <line x1="237.5" y1="52" x2="237.5" y2="362" stroke="#d64545" stroke-width="3"/>
  <line x1="568.5" y1="52" x2="568.5" y2="362" stroke="#d64545" stroke-width="3"/>
  <line x1="530" y1="64" x2="560" y2="64" stroke="#2364aa" stroke-width="3"/>
  <text x="570" y="69" font-size="14">青線: t分布</text>
  <rect x="530" y="84" width="30" height="14" fill="#f06a6a" opacity="0.45"/>
  <text x="570" y="97" font-size="14">赤い面積: p値</text>
  <line x1="530" y1="118" x2="560" y2="118" stroke="#d64545" stroke-width="3"/>
  <text x="570" y="123" font-size="14">赤線: ±t値</text>
  <text x="568.5" y="42" text-anchor="middle" font-size="14" fill="#d64545">t = 2.0</text>
  </svg>